<svg xmlns="http://www.w3.org/2000/svg" width="28" height="30" viewBox="0 0 28 30">
  <g transform="translate(-2)" fill="#393C46" fill-rule="evenodd">
    <g transform="translate(4)">
      <path d="M18.09 5.17S15.24 3.5 11.73 3.5c-3.56 0-6.4 1.68-6.4 1.68-1.69 1.65-2.75 4.97-2.75 7.5 0 .46.07.88.14 1.3H20.7c.06-.42.13-.84.13-1.3 0-2.5-1.05-5.84-2.75-7.5zm5.36 15.52a5.21 5.21 0 0 1-5.22 5.17H5.2A5.19 5.19 0 0 1 0 20.7l.07-9.03C.07 5.23 5.23 0 11.7 0c6.49 0 11.74 5.2 11.74 11.64v9.05zM5.93 21.96c1.15 0 2.09-.92 2.09-2.07 0-1.14-.94-2.06-2.1-2.06-1.14 0-2.08.92-2.08 2.06 0 1.15.94 2.07 2.09 2.07zm11.36.06c1.15 0 2.09-.92 2.09-2.07 0-1.14-.94-2.06-2.1-2.06-1.14 0-2.08.92-2.08 2.06 0 1.15.94 2.07 2.09 2.07z"/>
      <rect x="3.4" y="23.14" width="4.17" height="6.21" rx="1"/>
      <rect x="15.92" y="23.14" width="4.17" height="6.21" rx="1"/>
    </g>
    <rect x="27.16" y="8.08" width="2" height="6" rx="1"/>
    <rect x="2.36" y="8.08" width="2" height="6" rx="1"/>
  </g>
</svg>
