<svg xmlns="http://www.w3.org/2000/svg" width="23" height="30" viewBox="0 0 23 30">
  <path fill="#393C46" fill-rule="evenodd" d="M6.6 3.3h9.1a5 5 0 0 1 5 4.4L22.4 20a5 5 0 0 1-5 5.7H4.9A5 5 0 0 1 0 20L1.7 7.7a5 5 0 0 1 5-4.4zm-.4 2.3a2 2 0 0 0-2 1.7l-1 7.1a2 2 0 0 0 2 2.3H17a2 2 0 0 0 2-2.3l-1-7.1a2 2 0 0 0-2-1.7H6.3zM6 23.3c1 0 1.7-.7 1.7-1.6 0-1-.8-1.7-1.7-1.7-.9 0-1.6.7-1.6 1.7 0 .9.7 1.6 1.6 1.6zm9.9 0c.9 0 1.6-.7 1.6-1.6 0-1-.7-1.7-1.6-1.7s-1.7.7-1.7 1.7c0 .9.8 1.6 1.7 1.6zM6.6 0h8.7v2.2H6.6zM3.3 27.8h15.3V30H3.3z"/>
</svg>
