<svg xmlns="http://www.w3.org/2000/svg" width="23" height="30" viewBox="0 0 23 30">
  <path fill="#393C46" fill-rule="evenodd" d="M18.91 26.25h-1.89v1.88H5.67v-1.88H3.78v1.88H1.9V30h18.92v-1.88h-1.9zM1.9 13.13c0-3.76.77-5.95 2.02-7.5h14.86c1.25 1.56 2.03 3.75 2.03 7.5H1.89zm15.12 7.5h3.79v-3.75h-3.79v3.75zm-7.56-1.88h3.78V15H9.46v3.75zm-7.57 1.88h3.78v-3.75H1.9v3.75zM11.35 0C5.08 0 0 4.52 0 11.25v7.5c0 3.1 2.36 5.63 5.24 5.63h12.22c2.88 0 5.24-2.54 5.24-5.63v-7.5C22.7 4.52 17.62 0 11.35 0z"/>
</svg>
