<svg xmlns="http://www.w3.org/2000/svg" width="20" height="30" viewBox="0 0 20 30">
  <path fill="#393C46" fill-rule="evenodd" d="M17.46 15c-.08-.93-.23-2.02-.4-2.7l-1.1-4.38c-.06-.2-.41-.47-.58-.47H4.55c-.17 0-.52.27-.55.45l-1.05 4.38c-.18.7-.34 1.8-.4 2.72-.04.36-.05 2.5-.05 2.5h15s-.01-2.14-.04-2.5zM20 22.5c0 1.38-1.13 2.5-2.5 2.5h-5v-5h-5v5h-5A2.5 2.5 0 0 1 0 22.5v-6.55c0-.29.02-.61.04-.95.09-1.1.27-2.4.49-3.28l1.1-4.57c.12-.53.44-1.02.87-1.4A2.9 2.9 0 0 1 4.38 5h11.17c.7 0 1.41.32 1.95.82.4.37.7.83.83 1.33l1.12 4.57c.22.88.4 2.17.5 3.28.04.41.05 7.5.05 7.5zM2.5 2.5h15V0h-15v2.5zM0 30h20v-2.5H0V30z"/>
</svg>
