<svg xmlns="http://www.w3.org/2000/svg" width="27" height="30" viewBox="0 0 27 30">
  <path fill="#393C46" fill-rule="evenodd" d="M22.9 16.88c-.15-.03-18.93-.03-19.08 0V5.63c0-1.81 0-3.75 3.82-3.75h11.45c3.82 0 3.82 1.94 3.82 3.75v11.25zm-5.72 5.62h5.73v-1.88h-5.73v1.88zm-13.36 0h5.73v-1.88H3.82v1.88zM1.9 24.38c0 1.38.56 1.64 1.9 1.87v2.63c0 .56.4 1.12.96 1.12h1.91c.69 0 .96-.53.96-1.12v-2.63h11.45v2.63c0 .57.24 1.12.96 1.12h1.9c.72 0 .96-.41.96-1.12v-2.63c1.35-.23 1.9-.49 1.9-1.88V13.13h.96c.8 0 .96-1.1.96-1.87V9.37c0-.93-.17-1.87-.96-1.87h-.95V5.62C24.82 1.88 22.9 0 19.09 0H7.64C3.82 0 1.9 1.88 1.9 5.63V7.5H.95C.17 7.5 0 8.6 0 9.38v1.87c0 .77.17 1.88.95 1.88h.96v11.24z"/>
</svg>
