<svg xmlns="http://www.w3.org/2000/svg" width="30" height="30" viewBox="0 0 30 30">
  <path fill="#393C46" fill-rule="evenodd" d="M17.5 22.5H20V20h-2.5v2.5zm-7.5 0h2.5V20H10v2.5zm0-5h10v-5H10v5zm12.5-6.25v12.5c0 .69-.56 1.25-1.25 1.25H8.75c-.69 0-1.25-.56-1.25-1.25v-12.5c0-.69.56-1.25 1.25-1.25h12.5c.69 0 1.25.56 1.25 1.25zM7.5 30h15v-2.5h-15V30zm22.48-15c0 4.43-1.92 8.41-4.98 11.16v-3.74A12.4 12.4 0 0 0 27.5 15c0-6.9-5.6-12.5-12.5-12.5S2.5 8.1 2.5 15c0 2.79.95 5.34 2.5 7.42v3.74A15 15 0 1 1 29.98 15z"/>
</svg>
