<svg xmlns="http://www.w3.org/2000/svg" width="414" height="644" viewBox="0 0 414 644">
  <defs>
    <radialGradient id="a" cx="90.97%" cy="48.57%" r="77.92%" fx="90.97%" fy="48.57%" gradientTransform="matrix(-.62181 .78217 -.72265 -.57303 1.83 .05)">
      <stop offset="0%" stop-color="#223145" stop-opacity="0"/>
      <stop offset="100%" stop-color="#0F1621" stop-opacity=".03"/>
    </radialGradient>
  </defs>
  <path fill="url(#a)" fill-rule="evenodd" d="M790.33 726.13c9.88-9.2 20.34-16.3 31.37-21.28 3.1 18.14 7.23 41.53 11.8 67.06-6.22 3.1-14.15 4.5-23.79 4.2l-19.38-49.98zM628.1 959.07v-78.84l96.74-74.71 33.99 19.59c6.64 29.15 16.48 70.03 26.56 103.9l-157.28 30.06zm-.9-87.88l-12.89-97.52-8.74-66.16a14296.56 14296.56 0 0 0 82.18 29.07l16.66 5.83 15.72 57.01-92.93 71.77zm-6.8 88.67H505.05l2.53-77.08 112.81-.57v77.65zM500.12 875.1l-169.81.87 20.29-68.66c40-13 75.12-26.38 105.83-39.57a982.51 982.51 0 0 0 47.94-22.08l-1.15 35-3.1 94.44zm-2.79 84.73c-23.6-.17-46.22-1.9-67.09-4.5v-72.16l69.62-.36-2.53 77.02zm-72.6-5.2c-54.43-7.23-96.08-19.93-110.39-24.66l13.68-46.28 96.71-.5v71.44zM295.6 966.22l-48.57-13.14V836.96a1661.68 1661.68 0 0 0 27.72-7.2 1547.97 1547.97 0 0 0 66.98-19.6l-46.13 156.06zm-51.03-188.45l53.11-2.77a31.26 31.26 0 0 0 1.2 4.5l11.2 32.28a1560.36 1560.36 0 0 1-37.23 10.52 1664.73 1664.73 0 0 1-26.02 6.77l-2.26-51.3zm-8.08-182.92c13.22.43 26.7.68 40.09.68 10.7 0 21.34-.17 31.74-.54.87-.03 1.75-.05 2.62-.09l-.66 8.36-13.04 163.49a31.4 31.4 0 0 0-.09 2.76l-52.83 2.76-7.83-177.42zm5.04 356.74l-48.18-13.03-7.85-87.38a1733.38 1733.38 0 0 0 56.03-12.85v113.26zm-64.24-149.45a31.94 31.94 0 0 0 2.18-18.5l-.43-2.45 60.03-3.13 2.31 52.37a1726.54 1726.54 0 0 1-58.85 13.5c-14.16-14.12-9.43-32.13-5.24-41.79zm53.68-207.48l7.85 177.9-60.66 3.16c-7.99-52.78-11.8-161.93-12.52-184.72a1750.1 1750.1 0 0 0 65.33 3.66zm-42.5-51.05c7.75-.15 34.08-.8 64.03-2.87a838.24 838.24 0 0 0 50.3-4.84c18.81-2.47 33.84-5.42 44.96-8.84 3.6 25.6 7.09 43.61 10.26 56.39-15.68 2.06-33.1 3.3-51.25 3.9-47.18 1.59-99.34-1-138.99-3.91l20.68-39.83zm57.78-111.3a27764.93 27764.93 0 0 1 88.61-32.28 2217.65 2217.65 0 0 0 8.88 95.62c1 8.49 1.98 16.36 2.96 23.67-11.4 3.64-26.8 6.5-43.55 8.73-42.15 5.63-92.93 7.32-110.64 7.76l53.74-103.5zM546.7 325.22l37.97 120.7c-94.13 1.88-208.38 19.7-233.78 23.83a2411.99 2411.99 0 0 1-6.33-73.24l10.82-3.92c70.08-25.3 140.8-50.43 191.32-67.37zm37.44-12.31a27442.39 27442.39 0 0 1 24.96-8.12l.87 6.26 18.71 135.35a617.35 617.35 0 0 0-35.96-.6L554 322.78c4.9-1.63 9.6-3.17 14.04-4.62l16.08-5.24zm223.08-14c-8.28 23.94-23 86.43-38.19 157.27-1.3 6.05-2.6 12.15-3.9 18.3-53.88-15.8-114.75-25.33-128.56-27.38l-18.47-133.57-1.55-11.15c86.7-27.97 137.79-41.8 204.65-37a290 290 0 0 0-13.98 33.53zm-50.7 515.96l-28.68-16.54-14.57-52.85c7.4 2.58 15.77 5.49 25.1 8.72 10.22 32 16.27 52.23 18.15 60.67zM649.3 555.63l94.46 23.8a6157.65 6157.65 0 0 0-7.77 40.35c-10.57-3.45-35.1-11.17-48.1-12.9a1.65 1.65 0 0 0-1.85 1.41 1.65 1.65 0 0 0 1.42 1.86c12.72 1.7 37.66 9.56 47.91 12.91-6.27 33.3-11.46 62.67-14.8 84.13-1.98 12.73-3.31 22.69-3.82 29.03-6.27-2.18-12.87-4.49-19.72-6.89a13770.26 13770.26 0 0 1-106.25-37.67l58.52-136.03zM416.82 747.96l17.23-104.09c39.05 15.48 91.1 34.69 141.42 52.83-40 26.02-84.5 48.2-129.02 66.9a1148.05 1148.05 0 0 1-34.52 13.86l4.89-29.5zm9.9-107.01L409.75 743.4l-6.16 37.22a1342.14 1342.14 0 0 1-56.76 19.77l-2.05-.6-.41 1.4a1476 1476 0 0 1-26.9 8.38l-11.32-32.6a23.46 23.46 0 0 1-1.23-9.62l11.48-144.03 2.3-28.77a497.32 497.32 0 0 0 41.3-3.6c5.45 19.1 9.76 22.83 11.82 24.62 5.18 4.48 25.8 13.7 54.9 25.37zM512 561.9a11102 11102 0 0 1-146.33 10.84c-3.7-16.92-7.84-41.75-12.08-78.2a1793.67 1793.67 0 0 1-1.9-17.1c12.83-2.1 50.88-8.13 97.4-13.57 21.76-2.55 47.27-5.17 73.67-7.15l3.52 64.75a18.79 18.79 0 0 1-1.3 7.93L512 561.9zm71.5 127.15c-96.7-34.83-194.23-71.47-205.19-80.96-2.08-1.8-6-7.85-10.88-27.74 36.42-2.48 227.48-15.71 273.09-23.84L583.5 689.05zm54.16-233.98c17.13 2.6 74.8 11.94 125.87 26.99a7312.77 7312.77 0 0 0-18.3 89.8L650.52 548l-12.85-92.92zm-109.4 1.25c34.73-2.47 70.67-3.73 101.49-2.14l13 94.07c-15.57 3.45-66.8 8.38-124.62 13.15l11.96-29.95a24.32 24.32 0 0 0 1.7-10.28l-3.53-64.85zm-17.37 325.53l1.32-40.1c29.7-15.08 53.58-29.32 72.34-41.78l12.85 4.62 9.42 71.22 13.03 98.7-112.02.56 3.06-93.22zm337.28-513.64c20 5.1 36.3 6.09 48.78 3.05-.8 7.62-4.34 22.7-18.35 45.42-15.26 24.77-35.77 142.9-41.7 178.51-12.14 73.04-23.15 156.87-20.68 175.8.6 4.62 2.07 13.72 4.14 26-22.32 9.65-34.1 21.8-38.2 26.67-.7-.13 5.28 17.23 17.97 52.06l-58.79-30.96-14.9-5.16c.34-7.53 2.73-24.2 6.54-46.84 8.93-53.12 25.71-139.21 42.37-217.95 16.41-77.56 32.7-147.97 41.23-172.65a274.88 274.88 0 0 1 15.3-35.87c5.3.53 10.73 1.16 16.29 1.92zm56.63-52.24c9.8 6.67 9.8 18.57 9.79 19.05v.35l.03.33c.06.49 1.25 12.16-7.76 19.99-10.08 8.76-29.62 9.74-56.5 2.85l-.57-.11a477.83 477.83 0 0 0-12.81-1.57c14.51-25.58 28.47-39.87 31.78-43.08 15.92-3.85 28.2-3.15 36.04 2.19zm-3.93-12.66c-2.6-.78-5.4-1.32-8.37-1.62 6.02-14.78 16.88-39.78 26.19-55.68-1.59 14.38-5.94 36.28-17.82 57.3zm26.48 28.55l-2.93 1.3a37.2 37.2 0 0 0-3.85-13.76 224.21 224.21 0 0 1 11.3-3.88c-1.22 4.29-2.81 9.97-4.52 16.34zm-39.7 307.09c-13.55-2.76-29.07-4.74-46.75-5.97a2879.95 2879.95 0 0 1 5.78-36.16c15.38-92.46 30.85-159.5 40.37-174.95 16.1-26.12 20.2-44.97 20.08-54.45a34.34 34.34 0 0 0 6.36-4.37 32.6 32.6 0 0 0 10.47-18.8c-3.44 14-6.9 29.05-8.14 39.02-2.61 21.17-24.68 223.64-28.17 255.68zm67.72 83.66c-4.56 43.95-51.98 53.9-97.84 63.52l-8.24 1.73a159.54 159.54 0 0 0-19.49 5.45 795.42 795.42 0 0 1-3.75-23.6c-1.63-12.55 4.12-65.58 13.7-129.09 54.81 3.77 87.96 14.43 104.11 33.45 10.06 11.85 13.71 27.27 11.5 48.54zM495.56 277.35L479.96 150a126.3 126.3 0 0 0 20.03 1.85c1.25 0 2.47-.03 3.65-.08 42.94-2.05 111.22-3.5 123.93-3.75l5.1 124.45A4545.6 4545.6 0 0 0 549.06 300a6546.53 6546.53 0 0 0-53.5-22.65zM274.7 395.55a7.85 7.85 0 0 1-6.11-.34 7.83 7.83 0 0 1-4.03-4.6c-7.47-22.4-26.5-84.03-31.04-142.15l82.64 24.62c1.66.56 22.92 7.64 50.15 10.7 8.28.94 16.16 1.4 23.64 1.4 24.98 0 45.44-5.2 61.04-15.51a5884.01 5884.01 0 0 1 78.33 32.69l5.67 2.4c-45.27 15.38-94.9 32.6-139.57 48.22a27405.05 27405.05 0 0 0-120.72 42.57zm167.38-129.51c-46.34 25.56-122.7 0-123.5-.28l-85.6-25.5c-.98-18.07-.42-35.6 2.49-51.26 64.94 21.16 138.48 49.35 206.61 77.04zM376.6 173.4l-2.3 55c-55.7-21.56-100.53-37.44-136.44-49.13 2.69-9.47 8.55-29.37 15.3-48.03l123.44 42.16zm7.61 2.6l95.15 32.5 8.02 65.43a4897.78 4897.78 0 0 0-105.5-42.59L384.2 176zm2.33-55.3a786.99 786.99 0 0 0 23.19 9.05c24.3 9.03 45.1 15.3 62.29 18.8l6.3 51.45-93.77-32.03 1.99-47.27zM831.1 702.12c5.92-2.14 12.5-4.07 19.8-5.63l8.2-1.73c40.97-8.6 86.76-18.21 100.34-54.62 6.23-11.37 26.98-24.97 27.2-25.1l-4.22-6.47c-.62.4-10.66 6.98-19.33 15.23 1.14-11.53.65-21.56-1.53-30.38 7.85 7.2 16.62 13.92 22.58 14.51l.77-7.67c-6.55-.65-24.18-17.58-34.6-29.4-11.58-13.64-29.36-23-55.1-29.15l4.5-41.32h84.82v-7.7h-83.97c3.41-31.3 7.87-72.07 11.96-109.3l71.86 6.39c1.87-2.41 1.2-3.21.3-3.3l-71.8-6.38c5.07-46.06 9.5-86.03 10.59-94.8 1.35-10.9 5.6-28.61 9.65-44.04 12.15-5.23 32.45-13.3 52.61-18.35l-2.4-9.6c-17.36 4.34-34.5 10.7-46.95 15.81 1.79-6.5 3.32-11.89 4.25-15.11a274.5 274.5 0 0 1 44.42-8.47l-1.04-9.86a284.96 284.96 0 0 0-40.01 7.16l29.9-97.99-7.38-2.25-31.31 102.61c-9.7 2.8-16.85 5.45-20.75 7a30.84 30.84 0 0 0-3.95-3.25c18.7-35.03 19.08-70.73 18.96-77.4l10.1-26.04-9.23-3.58-10.08 25.96c-13.65 13.87-33.54 62.54-38.42 74.8-10.94.8-23.75 4.15-38.38 10.06a738.34 738.34 0 0 1-9.68 3.83c11.4-26.4 41.65-97.33 44.2-112.21l-7.6-1.3c-2.28 13.3-30.8 80.88-46.65 117.3-31.39 11.57-53.61 16.8-80.56 23.13-25.17 5.92-53.7 12.63-97.59 26.05l-5.3 1.63-6.87-167.62-7.7.32 1.54 37.52c-12.23.25-71.91 1.52-114.68 3.34l2.74-40.76-7.7-.52-2.79 41.63c-31.73 1.5-84.5-17.76-117.96-31.52l.4-9.7-7.7-.31-.28 6.85a714.3 714.3 0 0 1-23.09-10.18l-3.29 6.97c.17.08 10.53 4.95 26.03 11.44l-2 47.8-121.1-41.35a227.58 227.58 0 0 1 8.2-19.17l-8.89-4.4a240.36 240.36 0 0 0-8.71 20.36l-63.85-21.8-2.5 7.28 63.66 21.74a763.66 763.66 0 0 0-15.35 48.2c-95.97-30.61-123.58-29.55-125.43-29.44l.6 9.89c.2 0 20.24-.75 85.03 17.88 12 3.45 24.5 7.27 37.38 11.38-2.9 14.86-3.93 32-3.11 51.31l-118.48-35.3-2.2 7.38 121.12 36.1a423.18 423.18 0 0 0 4.08 36.19l-124.04-3.06-.13 5.5 125.06 3.09a566.42 566.42 0 0 0 2.47 13.97 657.76 657.76 0 0 0 7.02 32.18l-134.93 22.24.9 5.43 135.36-22.31a778.59 778.59 0 0 0 16.06 55.09 17.66 17.66 0 0 0 9.08 10.37 17.7 17.7 0 0 0 13.78.77 27498.89 27498.89 0 0 1 97.38-34.38c60.52-21.24 134.36-46.9 194.82-67.16 30.71-10.3 57.98-19.2 78.27-25.4 43.58-13.32 71.94-19.99 96.96-25.87 32.67-7.68 58.48-13.75 101.73-31.22l2.84-1.1a237.47 237.47 0 0 0-23.88 36.07c-78.75-6.54-134.53 11.63-245.08 47.68l-2.67.87-13.41 4.37c-47.16 15.34-121.13 41.46-196.24 68.51a31184.98 31184.98 0 0 0-267.18 97.83l3.46 9.29c1.35-.5 56.64-21.07 130.5-48.14l-76.1 146.58c-32.72-2.54-55.08-5.1-55.69-5.17l-.89 7.65c.57.07 20.7 2.38 50.72 4.78l-53.13 58.8 5.72 5.16 51.94-57.48c1.12 32.92 5.34 142.06 13.78 188.47.42 2.32.5 4.67.23 7l-69.06 10.27c-1.26 2.7-.56 3.29.24 3.29l68.17-10.13a25.07 25.07 0 0 1-1.24 3.62c-2.53 5.81-5.2 14.18-4.97 23.28l-62.22 10.22c-1.23 2.7-.53 3.28.26 3.28.06 0 20.79-3.4 62.18-10.2.7 6.68 3.1 13.6 8.34 20.1-43.07 8.86-70.6 12.76-71.05 12.82l1.07 7.63c.46-.06 29.26-4.14 74.07-13.43l7.52 83.65-81.4-22.02-1.44 5.31 83.36 22.55 3.73 41.46 7.68-.69-3.47-38.62 100.16 27.09-3.19 10.78 7.4 2.19 3.24-10.96 46.28 12.52 1.44-5.31-46.16-12.49 9.74-32.97c20.78 6.85 95.8 29.42 184.37 30.08l-.58 17.9 7.7.26.6-18.14h115.52v18.01h7.72v-18.7l158.88-30.37c7.3 23.88 14.64 43.58 20.93 52.03l9.31-2.96c-8.57-11.51-22.87-65.06-48.2-162.16-3.3-12.67-9.47-33.55-18.48-62.65l51.78 27.87c16.7-2.2 27.56-4.42 32.57-6.66 15.77 88.18 35.69 196.42 37.01 203.6h10.1c-.33-1.79-21.63-117.46-37.85-208.17 19.75-6.46 92.83-6.95 140.27-5.59l.22-7.7c-12.14-.35-111.72-2.92-141.84 5.74a9817.76 9817.76 0 0 1-11.7-66.62z" transform="scale(-1 1) rotate(1 20049.45 -51270.29)"/>
</svg>
