<svg width="25" height="19" xmlns="http://www.w3.org/2000/svg">
  <g fill-rule="nonzero" fill="none">
    <path
      d="M1.563 0h21.875C24.3 0 25 .71 25 1.584v15.042c0 .874-.7 1.583-1.563 1.583H1.563C.7 18.21 0 17.5 0 16.626V1.584C0 .71.7 0 1.563 0z"
      fill="#26A6D1"/>
    <path
      d="M4.031 6.333L1.563 11.87h2.955l.366-.882h.838l.366.882h3.253v-.673l.29.673h1.683l.29-.688v.688h6.766l.822-.86.77.86 3.476.008-2.477-2.76 2.477-2.784h-3.422l-.8.844-.746-.844h-7.36l-.633 1.43-.647-1.43H6.881v.651l-.328-.65H4.031zm.572.786h1.44l1.638 3.755V7.119H9.26l1.265 2.692L11.69 7.12h1.57v3.973h-.955l-.008-3.113-1.393 3.113h-.855l-1.4-3.113v3.113H6.682l-.373-.89H4.297l-.372.89H2.872l1.731-3.973zm9.531 0h3.886l1.188 1.301 1.226-1.3h1.189l-1.806 1.996 1.806 1.974H20.38l-1.188-1.316-1.233 1.316h-3.825V7.12zm-8.83.673L4.64 9.378h1.325l-.662-1.586zm9.79.15v.725h2.12v.808h-2.12v.792h2.377l1.105-1.166-1.058-1.16h-2.424v.001z"
      fill="#FFF"/>
  </g>
</svg>
