<svg xmlns="http://www.w3.org/2000/svg" xmlns:xlink="http://www.w3.org/1999/xlink" width="176" height="157">
  <defs>
    <path id="a" d="M.45 77c0 42.52 34.62 77 77.33 77s77.34-34.48 77.34-77S120.5 0 77.78 0C35.08 0 .44 34.48.44 77z"/>
    <path id="c"
          d="M41.33.14C26.32.92 24.52 21 15.48 28.8l-3.21 1.73c-2.77 2.11-7.1 5.1-9.9 9.35-4.62 7-.85 20.57.7 23.68 1.33 2.67 2.96 1.7 5.04.72 1.77-.83 3.87-1.66 6.4-.23 8.46 4.76 8.12 13.42 19.08 11.8 12-1.77 7.1-12.7 21.21-13.15 13.5-.42 15.66-.51 16.6-.3 1.74.39-6.21 2.58 6.17 11.11 6.81 4.7 14.14 1.3 19.24-3.3 2-1.8 4.01-4.01 4.65-6.65l9.12-2.63c3.3-13.66-.3-23.42.24-27.74.66-5.25.82-5.12 0-4.98-.85.14-2.81.27-6.45-6.05C90.3-2.26 92.37-.52 68.77 1.33c-3.18.25-7.32-.18-11.98-.6C53.1.37 49.05.03 44.9.03c-1.18 0-2.37.03-3.56.1z"/>
    <path id="e" d="M.15 0A76.74 76.74 0 0 0 60.3 29a76.74 76.74 0 0 0 60.13-29H.16z"/>
    <path id="g" d="M.2 2.63l.36.44L99 19.5A77.7 77.7 0 0 0 119.9.7L.2 2.64z"/>
    <path id="i"
          d="M.45 13.5c0 7.46 6.2 13.5 13.84 13.5s13.84-6.04 13.84-13.5S21.93 0 14.29 0C6.63 0 .45 6.04.45 13.5z"/>
    <path id="k"
          d="M.45 13.5c0 7.46 6.2 13.5 13.84 13.5s13.84-6.04 13.84-13.5S21.93 0 14.29 0C6.64 0 .45 6.04.45 13.5z"/>
    <path id="m" d="M.42 1.58v1.7L0 58h3.58L4 .24C4 .08 3.9 0 3.72 0 3.24 0 2.14.53.42 1.58z"/>
    <path id="o" d="M11.72.36L.65 12.01l.14 16.33 11.27 11.44 15.8-.14 11.07-11.65-.13-16.32L27.52.21z"/>
    <path id="q"
          d="M12.42 1.58A2.36 2.36 0 0 1 14.65 0a2.37 2.37 0 0 1 2.23 1.58c.37-.25.82-.4 1.3-.4a2.37 2.37 0 0 1 2.37 2.37v1.5a2.35 2.35 0 0 1 1.18-.32 2.37 2.37 0 0 1 2.36 2.37v13.6a7.69 7.69 0 0 1-7.67 7.68h-3.7a7.65 7.65 0 0 1-5.24-2.06L.67 19.95a.6.6 0 0 1-.19-.44v-.45a2.5 2.5 0 0 1 3.62-2.24l3.79 1.9a.58.58 0 0 0 .57-.03.58.58 0 0 0 .28-.5V3.55a2.37 2.37 0 0 1 2.36-2.37c.5 0 .94.15 1.32.4zm1.05 9.65a.6.6 0 1 1-1.18 0V3.55a1.18 1.18 0 0 0-2.36 0v14.64a1.76 1.76 0 0 1-.84 1.51 1.75 1.75 0 0 1-1.73.08l-3.79-1.9a1.32 1.32 0 0 0-1.9 1.18v.2l6.62 6.2a6.46 6.46 0 0 0 4.43 1.74h3.7a6.5 6.5 0 0 0 6.5-6.5V7.1a1.18 1.18 0 1 0-2.36 0v5.86a.6.6 0 0 1-.07.31.6.6 0 0 1-.76.28h-.03v-.01a.6.6 0 0 1-.33-.53V3.55a1.18 1.18 0 0 0-2.36 0v7.68a.6.6 0 1 1-1.18 0V2.37c0-.66-.53-1.19-1.18-1.19-.65 0-1.18.53-1.18 1.19v8.86z"/>
    <path id="s"
          d="M23.06 2.86C18.58 3.39 12.55 5.43 7.29 8l-7 6.26c4.44.57 39.1.63 42.48 1.45C46.2 16.55 39.91 2.34 29.63.3a1.94 1.94 0 0 0-.37-.04c-1.8 0-4.09 2.35-6.2 2.6z"/>
    <path id="u"
          d="M5.64 2.5L.89 8.52c8.42.04 19.26 1.7 22.95 0 2.98-1.38 1.74-5.83-13.01-8.17l-.14-.03A8.8 8.8 0 0 0 9.32.21C7.42.2 6.2.97 5.64 2.5z"/>
    <path id="w"
          d="M17.12 4.9A17.77 17.77 0 0 1 29.34 0a17.8 17.8 0 0 1 17.78 17.78A2.22 2.22 0 0 1 44.9 20H2.67a2.22 2.22 0 0 1-2.22-2.22c0-7.36 5.98-13.34 13.33-13.34 1.11 0 2.23.15 3.34.45zm2.28 4a2.22 2.22 0 0 1-2.45.6 8.86 8.86 0 0 0-11.78 6.06H42.5A13.35 13.35 0 0 0 29.34 4.44a13.37 13.37 0 0 0-9.94 4.47z"/>
    <path id="y"
          d="M17.12 4.9A17.77 17.77 0 0 1 29.34 0a17.8 17.8 0 0 1 17.78 17.78A2.22 2.22 0 0 1 44.9 20H2.67a2.22 2.22 0 0 1-2.22-2.22c0-7.36 5.98-13.34 13.33-13.34a12.8 12.8 0 0 1 3.34.45zm2.28 4a2.23 2.23 0 0 1-1.66.75c-.26 0-.53-.05-.79-.15a8.87 8.87 0 0 0-11.77 6.06h37.3A13.35 13.35 0 0 0 29.35 4.45 13.36 13.36 0 0 0 19.4 8.9z"/>
    <path id="A"
          d="M.43 10.67C.43 4.79 4.83 0 10.24 0c2.5 0 4.92 1.06 6.73 2.94a6.54 6.54 0 0 1 1.84-.27c4.05 0 7.35 3.58 7.35 8 0 .73-.55 1.33-1.23 1.33H1.66c-.68 0-1.23-.6-1.23-1.33zm9.83-8C6.62 2.67 3.59 5.55 3 9.33h20.57c-.68-2.87-3.59-4.84-6.5-3.63-.47.2-1.01.06-1.35-.35a7.12 7.12 0 0 0-5.47-2.68z"/>
  </defs>
  <g fill="none" fill-rule="evenodd">
    <path d="M-18-1h224v158H-18z"/>
    <g transform="translate(11 1)">
      <mask id="b" fill="#fff">
        <use xlink:href="#a"/>
      </mask>
      <path fill="#FFF" d="M-6.16 160.58h167.9V-6.58H-6.17z" mask="url(#b)"/>
      <circle cx="77.5" cy="77.5" r="77.5" fill="#FFF"/>
    </g>
    <g transform="translate(32 60)">
      <mask id="d" fill="#fff">
        <use xlink:href="#c"/>
      </mask>
      <path fill="#FFF" d="M-6.42 82.7h124.98V-6.6H-6.42z" mask="url(#d)"/>
    </g>
    <g transform="translate(28 126)">
      <mask id="f" fill="#fff">
        <use xlink:href="#e"/>
      </mask>
      <path fill="#00AFAA" d="M-8.76 42.18h139.41V-6.59H-8.76z" mask="url(#f)"/>
    </g>
    <g transform="translate(30 124)">
      <mask id="h" fill="#fff">
        <use xlink:href="#g"/>
      </mask>
      <path fill="#00908A" d="M-8.46 26.67h136.8V-6H-8.46z" mask="url(#h)"/>
    </g>
    <path fill="#383C45"
          d="M88.5 2.64c-41.83 0-75.86 34.03-75.86 75.86s34.03 75.86 75.86 75.86 75.86-34.03 75.86-75.86S130.33 2.64 88.5 2.64m0 154.36C45.21 157 10 121.79 10 78.5S45.21 0 88.5 0 167 35.21 167 78.5 131.79 157 88.5 157"/>
    <path fill="#383C45" fill-rule="nonzero"
          d="M45.79 99.86a1 1 0 1 1-1.87-.72c.87-2.28 2.31-3.54 4.26-3.54 1.94 0 3.38 1.26 4.25 3.54a1 1 0 1 1-1.86.72c-.6-1.58-1.38-2.26-2.4-2.26-1 0-1.78.68-2.38 2.26z"/>
    <path fill="#383C45"
          d="M27.75 127c-.73 0-1.33-.67-1.33-1.5s.6-1.5 1.33-1.5h122.6c.74 0-.67.67-.67 1.5s-.6 1.5-1.32 1.5H27.75z"/>
    <g transform="translate(50 107)">
      <mask id="j" fill="#fff">
        <use xlink:href="#i"/>
      </mask>
      <path fill="#FFF" d="M-6.14 33.43h40.86V-6.43H-6.14z" mask="url(#j)"/>
    </g>
    <path fill="#383C45"
          d="M63.5 108.88a11.64 11.64 0 0 0-11.63 11.62 11.64 11.64 0 0 0 23.25 0c0-6.41-5.21-11.63-11.62-11.63m0 27.13c-8.55 0-15.5-6.95-15.5-15.5S54.95 105 63.5 105 79 111.95 79 120.5 72.05 136 63.5 136"/>
    <g transform="translate(103 107)">
      <mask id="l" fill="#fff">
        <use xlink:href="#k"/>
      </mask>
      <path fill="#FFF" d="M-6.14 33.43h40.86V-6.43H-6.14z" mask="url(#l)"/>
    </g>
    <g fill="#383C45">
      <path
        d="M117.03 108.7c-6.56 0-11.9 5.3-11.9 11.84a11.89 11.89 0 0 0 23.8 0c0-6.53-5.35-11.85-11.9-11.85m0 27.65a15.85 15.85 0 0 1-15.87-15.8c0-8.71 7.12-15.8 15.86-15.8 8.75 0 15.87 7.09 15.87 15.8s-7.12 15.8-15.87 15.8m-54.2-21.06a5.28 5.28 0 0 0-5.28 5.26 5.28 5.28 0 0 0 10.57 0c0-2.9-2.37-5.27-5.29-5.27m0 14.49a9.25 9.25 0 0 1-9.25-9.22 9.25 9.25 0 0 1 18.5 0 9.25 9.25 0 0 1-9.25 9.22"/>
      <path
        d="M117.03 115.28a5.28 5.28 0 0 0-5.3 5.26 5.28 5.28 0 0 0 10.58 0c0-2.9-2.37-5.27-5.28-5.27m0 14.49a9.25 9.25 0 0 1-9.26-9.22 9.24 9.24 0 0 1 18.5 0 9.24 9.24 0 0 1-9.24 9.22"/>
      <path
        d="M134.58 120.54h5.94c.14 0 .3-.16.3-.4V88.03c0-.24-.16-.4-.3-.4H55.94c-11.51 0-20.87 9.74-20.87 21.7v8.46c0 1.52 1.16 2.76 2.58 2.76h8.13c.95-8.95 8.33-15.94 17.27-15.94s16.32 6.99 17.27 15.94h19.71c.96-8.95 8.34-15.94 17.27-15.94 8.94 0 16.32 6.98 17.28 15.94m5.94 3.95h-9.8v-1.97c0-7.7-6.02-13.97-13.42-13.97s-13.4 6.26-13.41 13.97v1.97H76.46v-1.97c0-7.7-6.02-13.97-13.41-13.97-7.4 0-13.41 6.26-13.41 13.97v1.97H37.65a6.64 6.64 0 0 1-6.55-6.7v-8.46c0-14.15 11.14-25.65 24.84-25.65h84.58a4.31 4.31 0 0 1 4.27 4.34v32.13c0 2.4-1.92 4.34-4.27 4.34"/>
      <path
        d="M53.89 83.67h36.7V62.61H74.26c-4.21 0-8.04 1.88-10 4.92L53.9 83.67zm40.66 3.95h-47.9L60.92 65.4c2.67-4.16 7.78-6.74 13.33-6.74h20.3v28.97z"/>
      <path
        d="M64.48 78.4h19.5v-9.2h-10.4c-1.89 0-3.67.84-4.52 2.16l-4.57 7.05zm23.46 3.96H57.2l8.53-13.15c1.59-2.45 4.6-3.97 7.86-3.97h14.35v17.12zm6.61 1.32h42.22l-9.18-16.25a9.74 9.74 0 0 0-8.53-4.82h-24.5v21.06zm49 3.94H90.6V58.66h28.47c5 0 9.6 2.62 11.98 6.84l12.51 22.12z"/>
      <path
        d="M101.16 78.4h25.1l-3.92-7.17a3.93 3.93 0 0 0-3.46-2.04h-17.72v9.22zm31.76 3.96H97.2V65.24h21.68a7.89 7.89 0 0 1 6.95 4.1l7.09 13.02z"/>
    </g>
    <g transform="translate(17 53)">
      <mask id="n" fill="#fff">
        <use xlink:href="#m"/>
      </mask>
      <path fill="#383C45" d="M-6 65h16V-6H-6z" mask="url(#n)"/>
    </g>
    <g transform="translate(0 18)">
      <mask id="p" fill="#fff">
        <use xlink:href="#o"/>
      </mask>
      <path fill="#FFF" d="M4.82-16.45L55.06 4.53l-20.3 51.92-50.24-20.98z" mask="url(#p)"/>
    </g>
    <path fill="#383C45"
          d="M2.73 45.73l10.54 10.6 14.77-.12L38.4 45.4l-.13-15.14-10.54-10.61-14.77.13L2.6 30.6l.13 15.14zM12.22 59L.15 46.85 0 29.52l11.86-12.37L28.78 17l12.07 12.15.15 17.34-11.86 12.36-16.92.15z"/>
    <g transform="translate(6 23)">
      <mask id="r" fill="#fff">
        <use xlink:href="#q"/>
      </mask>
      <path fill="#383C45" d="M-6.1 34.98h36.77V-6.6H-6.1z" mask="url(#r)"/>
    </g>
    <path fill="#383C45"
          d="M21.71 26.04v.4c.05-.13.11-.24.18-.34l-.13.09-.05-.15zm-3.87.06c.07.1.14.21.18.33v-.39l-.05.14-.13-.08zm7.42 3.51v.28a1.8 1.8 0 0 1 .25-.42l-.25.14zM7.51 42.17l6.43 5.85a5.92 5.92 0 0 0 4 1.54h3.7a5.79 5.79 0 0 0 5.86-5.71V30.57a.52.52 0 0 0-.53-.51.52.52 0 0 0-.52.51v5.73c.02.16-.03.39-.13.6-.28.53-.9.78-1.48.62l-.39-.2a1.22 1.22 0 0 1-.5-.97V27.1a.52.52 0 0 0-.53-.51.52.52 0 0 0-.53.5v7.51c0 .68-.56 1.22-1.25 1.22s-1.25-.54-1.25-1.22v-8.66a.52.52 0 0 0-.52-.5.52.52 0 0 0-.53.5v8.66c0 .68-.56 1.22-1.25 1.22s-1.25-.54-1.25-1.22v-7.5a.52.52 0 0 0-.52-.51.52.52 0 0 0-.53.5v14.3c0 .84-.43 1.59-1.15 2.03a2.47 2.47 0 0 1-2.37.1l-3.8-1.85c-.4-.2-.9.08-.96.5zM21.64 52h-3.7a8.45 8.45 0 0 1-5.71-2.2L5.4 43.6a1.21 1.21 0 0 1-.4-.9v-.43c0-1.7 1.42-3.1 3.17-3.1.49 0 .98.12 1.42.33l3.8 1.86-.1-14.24a3 3 0 0 1 3.03-2.96 3.1 3.1 0 0 1 1.02.18A3.06 3.06 0 0 1 19.87 23a3.06 3.06 0 0 1 2.53 1.33 3.1 3.1 0 0 1 1.02-.18 3 3 0 0 1 3.03 2.96v.55a3 3 0 0 1 3.55 2.9v13.29c0 4.5-3.75 8.15-8.36 8.15z"/>
    <g transform="translate(129 31)">
      <mask id="t" fill="#fff">
        <use xlink:href="#s"/>
      </mask>
      <path fill="#FFF" d="M-6.27 22.18h56.55V-6.18H-6.27z" mask="url(#t)"/>
    </g>
    <g transform="translate(115 20)">
      <mask id="v" fill="#fff">
        <use xlink:href="#u"/>
      </mask>
      <path fill="#FFF" d="M-5.61 15.54h37.26V-6.04H-5.61z" mask="url(#v)"/>
    </g>
    <g transform="translate(128 30)">
      <mask id="x" fill="#fff">
        <use xlink:href="#w"/>
      </mask>
      <path fill="#383C45" d="M-6.22 26.67h60V-6.67h-60z" mask="url(#x)"/>
    </g>
    <g transform="translate(54 22)">
      <mask id="z" fill="#fff">
        <use xlink:href="#y"/>
      </mask>
      <path fill="#383C45" d="M-6.22 26.67h60V-6.67h-60z" mask="url(#z)"/>
    </g>
    <g transform="translate(111 18)">
      <mask id="B" fill="#fff">
        <use xlink:href="#A"/>
      </mask>
      <path fill="#383C45" d="M-6 18.67h38.58V-6.67H-6z" mask="url(#B)"/>
    </g>
    <path fill="#383C45"
          d="M40.76 111a1.14 1.14 0 0 0-.58.16c-3.37 2.01-4.96 2.1-4.98 2.1-.67.03-1.21.65-1.2 1.4.01.74.55 1.34 1.23 1.34.2 0 2.17-.07 6.12-2.42.6-.36.83-1.2.5-1.86a1.22 1.22 0 0 0-1.09-.72m-21.87.69l-2.08-3.36 3.8 1.11v5.41z"/>
  </g>
</svg>
