<svg width="89" height="15" xmlns="http://www.w3.org/2000/svg" xmlns:xlink="http://www.w3.org/1999/xlink">
  <defs>
    <path id="a" d="M.12 0H7.2v11.59H.12z"/>
    <path id="c" d="M0 14.65h88.7V0H0z"/>
  </defs>
  <g fill="none" fill-rule="evenodd">
    <path fill="#383C45"
          d="M5.67 1.17v4.09H2.5V1.17H0v10.57h2.5V7.21h3.17v4.53h2.51V1.17zM16.23 2.95h-3.72v2.54h3.25v1.75h-3.25v2.7h3.98v1.8h-6.48V1.17h6.48z"/>
    <g transform="translate(0 .35)">
      <path
        d="M20.38 5.63h1.05c1.1 0 1.68-.48 1.68-1.59 0-1.02-.6-1.46-1.83-1.46h-.9v3.05zm.97 1.72h-.97v4.04h-2.5V.82h3.46c2.87 0 4.35 1.02 4.35 3.22 0 1.39-.66 2.23-2.03 2.85l2.68 4.5h-2.82l-2.17-4.04zM33.36 2.61h-3.72v2.53h3.25v1.75h-3.25v2.7h3.98v1.8h-6.49V.82h6.49z"
        fill="#383C45"/>
      <g transform="translate(56.16)">
        <mask id="b" fill="#fff">
          <use xlink:href="#a"/>
        </mask>
        <path
          d="M5.18 7.38c0-2.12-.63-2.76-1.55-2.76-.7 0-1.2.47-1.58 1.09v3.52c.34.57.87.92 1.47.92.98 0 1.66-.77 1.66-2.77m2.02 0c0 2.48-1.2 4.21-3.15 4.21-.87 0-1.6-.39-2.1-1.03l-.13.8H.12V.22l1.93-.2v4.3a2.65 2.65 0 0 1 2.2-1.13c1.85 0 2.95 1.53 2.95 4.2"
          fill="#48DAD0" mask="url(#b)"/>
      </g>
      <path d="M66.73 1.42c0 .65-.5 1.16-1.22 1.16-.7 0-1.2-.5-1.2-1.16 0-.66.5-1.17 1.2-1.17.73 0 1.22.51 1.22 1.17"
            fill="#48DAD0"/>
      <mask id="d" fill="#fff">
        <use xlink:href="#c"/>
      </mask>
      <path fill="#48DAD0" mask="url(#d)"
            d="M64.57 11.37h1.92V3.4h-1.92zM68.24 9.55V.2l1.93-.2v9.48c0 .37.13.55.45.55.18 0 .32-.03.45-.07l.4 1.35c-.32.15-.77.27-1.27.27-1.22 0-1.96-.73-1.96-2.04M74.63 1.42c0 .65-.5 1.16-1.22 1.16-.71 0-1.2-.5-1.2-1.16 0-.66.49-1.17 1.2-1.17.72 0 1.22.51 1.22 1.17M72.46 11.37h1.92V3.4h-1.92zM80.96 11c-.57.4-1.3.6-2 .6-1.56-.02-2.4-.9-2.4-2.61v-4.2h-1.24V3.4h1.25V1.64l1.92-.22V3.4h1.86l-.2 1.39H78.5v4.15c0 .79.26 1.1.85 1.1.3 0 .6-.09.95-.28l.67 1.23zM86.1 11.4c-.6 1.87-1.77 3.07-4.13 3.25l-.2-1.4c1.58-.24 2.1-.75 2.55-1.88h-.67L81.13 3.4h2.04l1.73 6.69 1.81-6.69h1.99l-2.6 8zM46.21 5.5v5.87h-1.96V5.8c0-1-.4-1.3-.88-1.3-.68 0-1.1.48-1.54 1.23v5.63h-1.96V5.8c0-1-.4-1.3-.88-1.3-.7 0-1.1.48-1.55 1.23v5.63h-1.96v-8.1h1.7l.15 1.06a2.75 2.75 0 0 1 2.35-1.29c.94 0 1.65.5 1.96 1.36.6-.84 1.36-1.36 2.43-1.36 1.29 0 2.14.94 2.14 2.47M53.17 9.4a2.91 2.91 0 0 1-2.5.6v-.03a3 3 0 0 1-1.2-5.28 2.91 2.91 0 0 1 3.7 0 2.99 2.99 0 0 1 0 4.71M55.68 7c0-2.42-1.93-4.38-4.3-4.38a4.34 4.34 0 0 0-4.31 4.2v4.54h4.41c2.33-.06 4.2-2 4.2-4.37"/>
      <path
        d="M51.38 8.8a1.8 1.8 0 0 1-.53-.08l.26-.86.08-.25.18.03a.64.64 0 1 0-.62-.47l-.2.06-.92.25a1.8 1.8 0 1 1 1.74 1.32"
        fill="#383C45" mask="url(#d)"/>
    </g>
  </g>
</svg>
