<svg xmlns="http://www.w3.org/2000/svg" width="168" height="24" viewBox="0 0 168 24">
  <g fill="none" fill-rule="evenodd">
    <path fill="#393C46"
          d="M6.958 14.197H5.005v8.132H0V1.063h6.927c2.89 0 5.061.532 6.516 1.596s2.182 2.69 2.182 4.88c0 1.37-.326 2.51-.977 3.42-.65.911-1.678 1.683-3.082 2.318l5.371 9.052h-5.646l-4.333-8.132zM5.005 10.73H7.11c1.119 0 1.958-.256 2.517-.768.56-.511.84-1.32.84-2.424 0-1.023-.3-1.77-.9-2.24-.601-.47-1.522-.706-2.763-.706h-1.8v6.138zm18.83 11.6h-5.006V1.062h5.005V22.33zM33.66 1.062c3.316 0 5.976.752 7.98 2.256 2.004 1.503 3.006 4.26 3.006 8.27 0 3.948-.977 6.725-2.93 8.331-1.953 1.606-4.486 2.41-7.599 2.41h-6.347V1.062h5.89zm-.885 3.652v13.962h1.648c1.648 0 2.899-.516 3.753-1.55.855-1.032 1.282-2.879 1.282-5.538 0-1.82-.214-3.233-.64-4.235-.428-1.002-1.008-1.693-1.74-2.071-.733-.379-1.638-.568-2.716-.568h-1.587zm27.313-.061h-7.446v5.094h6.5v3.529h-6.5v5.431h7.965v3.621h-12.97V1.063h12.97l-.52 3.59z"/>
    <path fill="#47DAD0"
          d="M78.914 5.134h-5.453v17.803h-4.029V5.134h-5.635v-3.19h15.541l-.424 3.19zm8.483 1.307c.585 0 1.12.07 1.605.212l-.666 3.767a5.842 5.842 0 0 0-1.424-.182c-.95 0-1.696.34-2.242 1.018-.545.678-.98 1.716-1.302 3.114v8.567H79.49V6.866h3.363l.363 3.16c.384-1.155.94-2.041 1.666-2.659a3.77 3.77 0 0 1 2.515-.926zm30.678-.03c1.05 0 1.994.151 2.832.455.839.304 1.631.78 2.379 1.428l-1.727 2.339c-.546-.405-1.07-.699-1.576-.881a4.875 4.875 0 0 0-1.666-.274c-2.403 0-3.605 1.833-3.605 5.5 0 1.863.313 3.204.94 4.025.625.82 1.514 1.23 2.665 1.23.566 0 1.086-.091 1.56-.274.475-.182 1.035-.475 1.682-.88l1.727 2.46c-1.515 1.236-3.242 1.853-5.18 1.853-1.536 0-2.869-.339-4-1.017-1.13-.679-2-1.646-2.605-2.902-.606-1.255-.909-2.734-.909-4.435 0-1.701.303-3.205.909-4.511.606-1.307 1.474-2.32 2.605-3.038 1.131-.72 2.454-1.079 3.969-1.079zm11.906 16.526h-3.878V.425L129.98 0v22.937zm4.271-8.993l5.847 8.993h-4.453l-5.514-8.78 5.362-7.291h4.09l-5.332 7.078zm20.752.578c0 .202-.03.729-.091 1.58h-10.058c.121 1.559.525 2.673 1.212 3.341.687.668 1.595 1.003 2.726 1.003.707 0 1.374-.117 2-.35.626-.233 1.292-.592 2-1.078l1.605 2.217c-1.777 1.438-3.757 2.157-5.938 2.157-2.444 0-4.327-.749-5.65-2.248-1.323-1.498-1.984-3.544-1.984-6.136 0-1.64.283-3.114.848-4.42.566-1.307 1.384-2.33 2.454-3.069 1.07-.74 2.343-1.109 3.817-1.109 2.242 0 3.979.714 5.21 2.142 1.233 1.428 1.849 3.418 1.849 5.97zm-3.848-1.125c0-2.815-1.04-4.222-3.12-4.222-.95 0-1.691.349-2.227 1.048-.535.699-.853 1.817-.954 3.357h6.301v-.183zm15.238-6.956c.586 0 1.121.07 1.606.212l-.666 3.767a5.842 5.842 0 0 0-1.424-.182c-.95 0-1.697.34-2.242 1.018-.545.678-.98 1.716-1.303 3.114v8.567h-3.877V6.866h3.362l.364 3.16c.384-1.155.939-2.041 1.666-2.659a3.77 3.77 0 0 1 2.514-.926z"/>
    <path fill="#48DAD0"
          d="M103.26 19.334a6.157 6.157 0 0 1-5.222 1.222v-.042c-2.82-.607-4.933-3.084-4.933-6.05a6.15 6.15 0 0 1 2.403-4.87 6.16 6.16 0 0 1 7.75 0 6.153 6.153 0 0 1 2.402 4.87 6.152 6.152 0 0 1-2.4 4.87m5.272-4.98c0-4.983-4.055-9.038-9.038-9.038-4.87 0-8.848 3.87-9.029 8.696l-.01-.01v9.39h9.262l-.004-.002c4.883-.118 8.819-4.126 8.819-9.036"/>
    <path fill="#383C45"
          d="M99.508 18.228a3.856 3.856 0 0 1-1.13-.163l.558-1.858.16-.529a1.383 1.383 0 0 0 1.779-1.328 1.384 1.384 0 0 0-1.386-1.377 1.384 1.384 0 0 0-1.325 1.76l-.439.122-1.96.549a3.878 3.878 0 0 1 3.716-4.923 3.877 3.877 0 0 1 3.886 3.86 3.877 3.877 0 0 1-3.86 3.887"/>
  </g>
</svg>
