<svg width="26" height="16" xmlns="http://www.w3.org/2000/svg">
  <g fill-rule="nonzero" fill="none">
    <path d="M15.753 8c0 4.42-3.526 8-7.877 8C3.526 16 0 12.418 0 8s3.527-8 7.876-8c4.35 0 7.877 3.582 7.877 8z"
          fill="#E2574C"/>
    <path
      d="M17.336 0a7.756 7.756 0 0 0-4.707 1.595l.006.001c.259.254.544.432.764.724l-1.64.026c-.256.264-.49.55-.71.848h2.89c.22.268.422.5.607.796h-4.022a8.008 8.008 0 0 0-.402.798h4.882c.127.274.241.482.338.772h-5.51a7.785 7.785 0 0 0-.218.846h5.96c.058.277.102.533.133.794H9.496c-.026.263-.04.53-.04.8h6.296c0 .283-.02.546-.048.8H9.496c.026.271.066.538.118.8h5.95c-.062.26-.133.52-.222.79H9.815c.083.274.185.54.296.799h4.893c-.136.291-.29.524-.459.797H10.51c.16.28.335.547.526.803l2.902.044c-.247.301-.565.483-.854.747.016.013-.462-.002-1.404-.017A7.793 7.793 0 0 0 17.336 16c4.351 0 7.878-3.582 7.878-8s-3.526-8-7.878-8z"
      fill="#F4B459"/>
  </g>
</svg>
