<svg xmlns="http://www.w3.org/2000/svg" xmlns:xlink="http://www.w3.org/1999/xlink" width="168" height="167" viewBox="0 0 168 167">
  <defs>
    <path id="a" d="M0 .38c16.85 30.37 36.2 41.76 71.94 42.95 35.74 1.2 57.13-20.74 73.51-42.46L.01.37z"/>
    <path id="b" d="M.96 1.36c.09.2 37.6 11 112.53 32.44 11.15-7.14 19.66-14.31 34.25-32.98L.96 1.36z"/>
  </defs>
  <g fill="none" fill-rule="evenodd">
    <circle cx="84.5" cy="83.5" r="82.5" fill="#FFF"/>
    <path fill="#393C46" fill-rule="nonzero" d="M134.06 66.22c4.43-6.78.3-17.7-9.42-15.64l-25.57 5.45a99.46 99.46 0 0 0-1.49-13.53c-2.24-7.9-8.65-17.79-8.96-18.14-1.3-1.54-6.51-2.9-11.04-.88-5.85 2.62-5.64 6.66-5.39 7.73 0 0 1.76 11.84 2.39 14.69-1.56 7.06-12 25.53-12.86 25.71l-32.3 6.87a5.06 5.06 0 0 0-3.9 6L35 129.1a4.8 4.8 0 0 0 5.56 3.3l29.02-6.16c2.57-.55 4.43-2.1 3.88-4.67a128 128 0 0 0 8.84-1.42l43.3-9.2c16.19-3.44 11.4-17.44 9.5-19.08 2.1-3.56 2.68-9.17-.51-12.83 1.37-2.26 3.4-8.08-.54-12.83zM67.6 121.79l-28.03 5.95L30.1 83.2l28.03-5.96 9.47 44.55zm58.83-54.35l-.03 1.16c7.91.53 5.77 9.97.54 11.67l-.03 1.16c7.53.3 6 9.87.53 11.66l-.03 1.16c6.04-.28 6.75 9.98-2.1 11.86l-44.04 9.38c-2.07.44-5.52.98-10.35 1.6l-8.34-39.24c2.16-2.07 4.58-5.71 5.98-7.52 2.63-3.42 11.32-22.28 10.76-24.94-.57-2.66-2.52-15.3-2.52-15.3s1.87-3.87 8.14-2.67c0 0 6 9.26 8.03 16.39 0 0 1.55 13.17 1.38 18.1l30.53-6.5c7.5-1.58 8.35 9.43 1.55 12.03z"/>
    <use fill="#00AFAA" transform="translate(12.2 121.55)" xlink:href="#a"/>
    <use fill="#00908A" transform="translate(9.86 121.55)" xlink:href="#b"/>
    <path fill="#393C46" d="M84.1 2.8C39.59 2.8 3.38 39 3.38 83.5s36.21 80.7 80.72 80.7c44.5 0 80.72-36.2 80.72-80.7S128.6 2.8 84.1 2.8m0 164.2C38.04 167 .57 129.54.57 83.5S38.04 0 84.1 0s83.53 37.46 83.53 83.5S130.16 167 84.1 167"/>
    <path fill="#393C46" d="M13.33 125.38a2.25 2.25 0 0 1-2.26-2.24c0-1.24-.8-2.25.45-2.25H157.1c1.24 0-.52 1-.52 2.25s-.07 2.24-1.32 2.24H13.33z"/>
    <path d="M145.73 114.27a67.78 67.78 0 0 0 7.36-30.77.8.8 0 0 1 1.58 0 69.36 69.36 0 0 1-7.44 31.33c-1.4 2.76-2.48 1.37-1.5-.56zM50.93 23a.8.8 0 0 1 .78 1.38A67.87 67.87 0 0 0 17.23 83.5a.8.8 0 0 1-1.6 0A69.46 69.46 0 0 1 50.94 23z" fill="#E1E1E1" fill-rule="nonzero"/>
    <path fill="#393C46" fill-rule="nonzero" d="M126.29 31.56l-1.62-.6a4.77 4.77 0 0 1-2.82-2.82l-.6-1.62a.15.15 0 0 0-.3 0l-.59 1.62a4.77 4.77 0 0 1-2.82 2.83l-1.62.6a.15.15 0 0 0 0 .28l1.62.6a4.77 4.77 0 0 1 2.82 2.82l.6 1.62a.15.15 0 0 0 .29 0l.6-1.61a4.77 4.77 0 0 1 2.82-2.83l1.62-.6a.15.15 0 0 0 0-.29zm-14.82-9.54l-1.94-.71a5.72 5.72 0 0 1-3.4-3.4l-.71-1.93a.19.19 0 0 0-.35 0l-.72 1.94a5.72 5.72 0 0 1-3.39 3.39l-1.94.71a.19.19 0 0 0 0 .35l1.94.72a5.72 5.72 0 0 1 3.4 3.39l.71 1.94a.19.19 0 0 0 .35 0l.72-1.94a5.72 5.72 0 0 1 3.39-3.4l1.94-.71a.19.19 0 0 0 0-.35z"/>
    <path fill="#FFF" fill-rule="nonzero" d="M128.35 9.82l-2.42-.9a7.16 7.16 0 0 1-4.24-4.23l-.9-2.42a.23.23 0 0 0-.43 0l-.9 2.42a7.15 7.15 0 0 1-4.23 4.24l-2.43.9a.23.23 0 0 0 0 .43l2.43.9a7.16 7.16 0 0 1 4.23 4.23l.9 2.43a.23.23 0 0 0 .43 0l.9-2.43a7.16 7.16 0 0 1 4.24-4.24l2.42-.9a.23.23 0 0 0 0-.43zm.73-1.98a2.35 2.35 0 0 1 0 4.4l-2.42.9a5.04 5.04 0 0 0-2.99 2.98l-.9 2.42a2.35 2.35 0 0 1-4.4 0l-.9-2.42a5.04 5.04 0 0 0-2.98-2.98l-2.42-.9a2.35 2.35 0 0 1 0-4.4l2.42-.9a5.04 5.04 0 0 0 2.99-2.98l.9-2.42a2.35 2.35 0 0 1 4.4 0l.9 2.42a5.04 5.04 0 0 0 2.98 2.99l2.43.89z"/>
    <path fill="#393C46" fill-rule="nonzero" d="M128.35 9.82l-2.42-.9a7.16 7.16 0 0 1-4.24-4.23l-.9-2.42a.23.23 0 0 0-.43 0l-.9 2.42a7.15 7.15 0 0 1-4.23 4.24l-2.43.9a.23.23 0 0 0 0 .43l2.43.9a7.16 7.16 0 0 1 4.23 4.23l.9 2.43a.23.23 0 0 0 .43 0l.9-2.43a7.16 7.16 0 0 1 4.24-4.24l2.42-.9a.23.23 0 0 0 0-.43z"/>
  </g>
</svg>
