<svg xmlns="http://www.w3.org/2000/svg" xmlns:xlink="http://www.w3.org/1999/xlink" width="192" height="187">
  <defs>
    <path id="a" d="M.08 0c14.3 17.68 36.3 29 60.96 29S107.71 17.68 122 0H.08z"/>
    <path id="c" d="M.8 2.63l.38.44L100.4 19.5A78.12 78.12 0 0 0 121.5.7L.8 2.64z"/>
    <path id="e"
          d="M.78.95c-.16.58.2 1.18.8 1.34l9.51 2.49c.61.15 1.24-.19 1.4-.77.16-.59-.2-1.19-.8-1.34L2.18.18a1.13 1.13 0 0 0-1.4.77z"/>
    <path id="g"
          d="M10.78.83l-9.53 2.7c-.61.18-.97.85-.81 1.5.16.66.78 1.05 1.39.88l9.53-2.71c.6-.18.97-.85.8-1.5-.13-.55-.59-.92-1.1-.92-.09 0-.19.02-.28.05z"/>
    <path id="h" d="M.59.36a1.2 1.2 0 0 0 0 1.7l7.34 7.4a1.2 1.2 0 0 0 1.7-1.7L2.3.37a1.2 1.2 0 0 0-1.7 0z"/>
  </defs>
  <g fill="none" fill-rule="evenodd">
    <g transform="translate(10)">
      <circle cx="79" cy="108" r="79" fill="#FFF"/>
      <g transform="translate(18 156)">
        <mask id="b" fill="#fff">
          <use xlink:href="#a"/>
        </mask>
        <path fill="#00AFAA" d="M-8.96 42.18h141.33V-6.59H-8.96z" mask="url(#b)"/>
      </g>
      <path fill="#383C45"
            d="M79 31.66C36.9 31.66 2.66 65.9 2.66 108S36.9 184.34 79 184.34s76.34-34.24 76.34-76.34S121.1 31.66 79 31.66M79 187c-43.56 0-79-35.44-79-79s35.44-79 79-79 79 35.44 79 79-35.44 79-79 79"/>
      <g transform="translate(18 154)">
        <mask id="d" fill="#fff">
          <use xlink:href="#c"/>
        </mask>
        <path fill="#00908A" d="M-7.92 26.67H130V-6H-7.92z" mask="url(#d)"/>
      </g>
      <path fill="#383C45"
            d="M12.68 157.63c-1.25 0-2.26-.96-2.26-2.13s1.01-2.13 2.26-2.13h127.84c1.25 0-.74 2.13-.74 2.13s-1.01 2.13-2.26 2.13H12.68z"/>
      <g transform="rotate(18 -16.88 87.42)">
        <mask id="f" fill="#fff">
          <use xlink:href="#e"/>
        </mask>
        <path fill="#383C45" d="M-3.49-7.77l24.25 6.33-4 14.17L-7.49 6.4z" mask="url(#f)"/>
      </g>
      <use fill="#383C45" transform="rotate(18 -42.14 83.42)" xlink:href="#g"/>
      <g transform="rotate(18 8.03 114.02)">
        <mask id="i" fill="#fff">
          <use xlink:href="#h"/>
        </mask>
        <path fill="#383C45" d="M1.48-10.2L20.2 8.64 8.75 20.04-10 1.18z" mask="url(#i)"/>
      </g>
      <path
        d="M92.89 174.4a.93.93 0 0 1-.2-1.85 65.12 65.12 0 0 0 47.2-42.82.93.93 0 1 1 1.77.58 66.99 66.99 0 0 1-48.57 44.06.97.97 0 0 1-.2.02"
        fill="#383C45"/>
    </g>
    <g stroke="#383C45">
      <path fill="#FFF"
            d="M60.35 18.95l56.85-.57a10 10 0 0 1 10.1 9.9v.06l.4 119.08a10 10 0 0 1-10.24 10.03l-58.38-1.41a10 10 0 0 1-9.76-10.1l1.13-117.09a10 10 0 0 1 9.9-9.9z"/>
      <path fill="#383C45" fill-rule="nonzero" stroke-width="1.3"
            d="M119.8 39.19h-4.33c-.87 0-1.44.58-1.44 1.45 0 .86.57 1.44 1.44 1.44h2.89v86.77H59.14V42.08h59.29c.86 0 .86-2.89 0-2.89H57.7c-.87 0-1.45.58-1.45 1.45v89.66c0 .86.58 1.44 1.45 1.44h62.1c.87 0 1.45-.58 1.45-1.45V40.64c0-.87-.58-1.45-1.45-1.45zm-38.55-7.23h13c.87 0 1.44-.58 1.44-1.45 0-.86-.57-1.44-1.44-1.44h-13c-.87 0-1.44.57-1.44 1.44s.57 1.45 1.44 1.45z"/>
      <path fill="#383C45" fill-rule="nonzero" stroke-width="1.3"
            d="M58.96 21.63a7.57 7.57 0 0 0-7.57 7.57v118.3a7.57 7.57 0 0 0 7.57 7.56h60.18a7.57 7.57 0 0 0 7.56-7.56V29.2a7.57 7.57 0 0 0-7.56-7.57H58.96zm0-2.75h60.18c5.7 0 10.32 4.62 10.32 10.32v118.3c0 5.7-4.62 10.31-10.32 10.31H58.96c-5.7 0-10.32-4.62-10.32-10.31V29.2c0-5.7 4.62-10.32 10.32-10.32z"/>
      <path fill="#383C45" fill-rule="nonzero" stroke-width="1.3"
            d="M88.53 151.8a8.77 8.77 0 1 1 0-17.54 8.77 8.77 0 0 1 0 17.53zm0-2.41a6.36 6.36 0 1 0 0-12.73 6.36 6.36 0 0 0 0 12.73z"/>
    </g>
    <path stroke="#383C45" stroke-width="2" d="M48.5 58.15A64.88 64.88 0 0 0 24 109"/>
    <path stroke="#383C45" stroke-linecap="round" stroke-width="2"
          d="M58.5 41.5l23.8 21.1m5.2 3.9l10.2 9.59M75.5 72.5l31.43 27.86m3.57 3.14l8.74 8.22"/>
    <g transform="translate(15 109)">
      <circle cx="29" cy="29" r="29" fill="#FFF"/>
      <circle cx="29" cy="29" r="29" stroke="#383C45" stroke-width="4"/>
      <path fill="#383C45" d="M9 26h40v8H9z"/>
    </g>
  </g>
</svg>
