<svg width="25" height="9" xmlns="http://www.w3.org/2000/svg">
  <g fill-rule="nonzero" fill="none">
    <path
      d="M10.219.009L8.964 8.186h2.006L12.223.009H10.22zm6.049 3.33c-.7-.362-1.13-.606-1.13-.977.008-.337.363-.682 1.155-.682a3.354 3.354 0 0 1 1.494.302l.182.086.272-1.711a4.86 4.86 0 0 0-1.8-.337c-1.98 0-3.375 1.078-3.383 2.62-.017 1.138.998 1.77 1.758 2.149.775.388 1.04.64 1.04.986-.01.53-.628.775-1.205.775-.8 0-1.23-.126-1.882-.422l-.264-.126-.28 1.778c.47.22 1.337.412 2.236.422 2.105 0 3.474-1.062 3.491-2.705.007-.902-.528-1.593-1.684-2.157zM23.383.035H21.83c-.478 0-.841.144-1.048.658l-2.98 7.494h2.106l.58-1.623h2.354l.3 1.63H25L23.383.033zm-2.311 4.892c.04.004.808-2.648.808-2.648l.61 2.648h-1.418zM7.288.01L5.323 5.564 5.11 4.47c-.363-1.264-1.502-2.638-2.773-3.32l1.8 7.029h2.121L9.41.01H7.288V.009z"
      fill="#2394BC"/>
    <path d="M4.448 1.064C4.295.44 3.807.02 3.144.01H.032L0 .162c2.427.627 4.465 2.555 5.126 4.37l-.678-3.468z"
          fill="#EFC75E"/>
  </g>
</svg>
