<svg xmlns="http://www.w3.org/2000/svg" viewBox="0 0 255.64 255.64">
  <path d="M75.07 2.72a5 5 0 0 0-3.4 1.46l-15 15a5 5 0 1 0 7.08 7.07l6.46-6.46v42.93h-10a5 5 0 1 0 0 10H74.4c.54.08 1.08.08 1.62 0h9.2a5 5 0 1 0 0-10h-5v-55a5 5 0 0 0-5.14-5zm55.14 0a5 5 0 0 0-3.39 1.46l-15 15a5 5 0 1 0 7.07 7.07l6.47-6.46v42.93h-10a5 5 0 1 0 0 10h14.18c.53.08 1.08.08 1.62 0h9.2a5 5 0 1 0 0-10h-5v-55a5 5 0 0 0-5.15-5zm-112.64.03c-9.6 0-17.5 7.9-17.5 17.5v35c0 9.61 7.9 17.5 17.5 17.5s17.5-7.89 17.5-17.5v-35c0-9.6-7.89-17.5-17.5-17.5zm165.43 0c-9.61 0-17.5 7.9-17.5 17.5v35c0 9.61 7.89 17.5 17.5 17.5s17.5-7.89 17.5-17.5v-35c0-9.6-7.9-17.5-17.5-17.5zm55.14 0c-9.6 0-17.5 7.9-17.5 17.5v35c0 9.61 7.9 17.5 17.5 17.5 9.61 0 17.5-7.89 17.5-17.5v-35c0-9.6-7.89-17.5-17.5-17.5zm-220.57 10c4.24 0 7.5 3.26 7.5 7.5v35c0 4.24-3.26 7.5-7.5 7.5s-7.5-3.26-7.5-7.5v-35c0-4.24 3.26-7.5 7.5-7.5zm165.43 0c4.24 0 7.5 3.26 7.5 7.5v35c0 4.24-3.26 7.5-7.5 7.5s-7.5-3.26-7.5-7.5v-35c0-4.24 3.26-7.5 7.5-7.5zm55.14 0c4.24 0 7.5 3.26 7.5 7.5v35c0 4.24-3.26 7.5-7.5 7.5s-7.5-3.26-7.5-7.5v-35c0-4.24 3.26-7.5 7.5-7.5zM19.93 92.8a5 5 0 0 0-3.4 1.46l-15 15a5 5 0 0 0 7.08 7.07l6.46-6.46v42.93h-10a5 5 0 1 0 0 10h14.18c.54.09 1.09.09 1.62 0h9.2a5 5 0 1 0 0-10h-5v-55a5 5 0 0 0-5-5h-.14zm110.28 0a5 5 0 0 0-3.39 1.46l-15 15a5 5 0 1 0 7.07 7.07l6.47-6.46v42.93h-10a5 5 0 1 0 0 10h14.18c.53.09 1.08.09 1.62 0h9.2a5 5 0 1 0 0-10h-5v-55a5 5 0 0 0-5-5h-.15zm55.14 0a5 5 0 0 0-3.39 1.46l-15 15a5 5 0 1 0 7.07 7.07l6.47-6.46v42.93h-10a5 5 0 1 0 0 10h14.18c.54.09 1.08.09 1.62 0h9.2a5 5 0 1 0 0-10h-5v-55a5 5 0 0 0-5-5h-.15zm-112.64.03c-9.6 0-17.5 7.9-17.5 17.5v35c0 9.61 7.9 17.5 17.5 17.5s17.5-7.89 17.5-17.5v-35c0-9.6-7.89-17.5-17.5-17.5zm165.43 0c-9.6 0-17.5 7.9-17.5 17.5v35c0 9.61 7.9 17.5 17.5 17.5 9.61 0 17.5-7.89 17.5-17.5v-35c0-9.6-7.89-17.5-17.5-17.5zm-165.43 10c4.25 0 7.5 3.26 7.5 7.5v35c0 4.25-3.25 7.5-7.5 7.5s-7.5-3.25-7.5-7.5v-35c0-4.24 3.26-7.5 7.5-7.5zm165.43 0c4.24 0 7.5 3.26 7.5 7.5v35c0 4.25-3.26 7.5-7.5 7.5s-7.5-3.25-7.5-7.5v-35c0-4.24 3.26-7.5 7.5-7.5zM19.93 182.86a5 5 0 0 0-3.4 1.46l-15 15a5 5 0 1 0 7.08 7.07l6.46-6.46v42.93h-10a5 5 0 1 0 0 10h14.18c.54.09 1.09.09 1.62 0h9.2a5 5 0 1 0 0-10h-5v-55a5 5 0 0 0-5-5h-.14zm55.14 0a5 5 0 0 0-3.4 1.46l-15 15a5 5 0 1 0 7.08 7.07l6.46-6.46v42.93h-10a5 5 0 1 0 0 10H74.4c.54.09 1.08.09 1.62 0h9.2a5 5 0 1 0 0-10h-5v-55a5 5 0 0 0-5-5h-.14zm55.14 0a5 5 0 0 0-3.39 1.46l-15 15a5 5 0 1 0 7.07 7.07l6.47-6.46v42.93h-10a5 5 0 1 0 0 10h14.18c.53.08 1.08.08 1.62 0h9.2a5 5 0 1 0 0-10h-5v-55a5 5 0 0 0-5-5h-.15zm55.14 0a5 5 0 0 0-3.39 1.46l-15 15a5 5 0 1 0 7.07 7.07l6.47-6.46v42.93h-10a5 5 0 1 0 0 10h14.18c.54.08 1.08.08 1.62 0h9.2a5 5 0 1 0 0-10h-5v-55a5 5 0 0 0-5-5h-.15zm52.8.03c-9.62 0-17.5 7.9-17.5 17.5v35c0 9.61 7.88 17.5 17.5 17.5 9.6 0 17.5-7.89 17.5-17.5v-35c0-9.6-7.9-17.5-17.5-17.5zm0 10c4.23 0 7.5 3.26 7.5 7.5v35c0 4.25-3.27 7.5-7.5 7.5s-7.5-3.25-7.5-7.5v-35c0-4.24 3.25-7.5 7.5-7.5z"/>
</svg>
