<?xml version="1.0" encoding="UTF-8"?>
<svg width="58px" height="29px" viewBox="0 0 58 29" version="1.1" xmlns="http://www.w3.org/2000/svg" xmlns:xlink="http://www.w3.org/1999/xlink">
  <!-- Generator: Sketch 53.1 (72631) - https://sketchapp.com -->
  <title>taxiflag</title>
  <desc>Created with Sketch.</desc>
  <g id="RT---Flow" stroke="none" stroke-width="1" fill="none" fill-rule="evenodd">
    <g id="taxiflag" fill="#FFFFFF" fill-rule="nonzero">
      <g id="driver-at-pickup" transform="translate(0.000000, 0.392405)">
        <g id="vehicle-icons-17" transform="translate(0.000000, 5.000000)">
          <path d="M30.8071429,18.025 L30.8071429,11.275 L2.19285714,11.275 L2.19285714,18.025 L30.8071429,18.025 Z M30.8190476,19.525 L2.18095238,19.525 C1.32117181,19.525 0.692857143,18.8865512 0.692857143,18.025 L0.692857143,11.275 C0.692857143,10.4134488 1.32117181,9.775 2.18095238,9.775 L30.8190476,9.775 C31.6788282,9.775 32.3071429,10.4134488 32.3071429,11.275 L32.3071429,18.025 C32.3071429,18.827437 31.6664183,19.525 30.8190476,19.525 Z" id="Path"></path>
          <g id="Group" transform="translate(3.214286, 18.250000)">
            <path d="M4.93333333,3 L4.93333333,1.275 L1.41428571,1.275 L1.41428571,3 L4.93333333,3 Z M4.9452381,4.5 L1.40238095,4.5 C0.54260038,4.5 -0.0857142857,3.86155123 -0.0857142857,3 L-0.0857142857,0.525 C-0.0857142857,0.110786438 0.250072152,-0.225 0.664285714,-0.225 L5.68333333,-0.225 C6.0975469,-0.225 6.43333333,0.110786438 6.43333333,0.525 L6.43333333,3 C6.43333333,3.86155123 5.80501867,4.5 4.9452381,4.5 Z" id="Path"></path>
            <path d="M21.6261905,4.5 C20.7664099,4.5 20.1380952,3.86155123 20.1380952,3 L20.1380952,0.525 C20.1380952,0.110786438 20.4738817,-0.225 20.8880952,-0.225 L25.9071429,-0.225 C26.3213564,-0.225 26.6571429,0.110786438 26.6571429,0.525 L26.6571429,3 C26.6571429,3.86155123 26.0288282,4.5 25.1690476,4.5 L21.6261905,4.5 Z M25.1571429,3 L25.1571429,1.275 L21.6380952,1.275 L21.6380952,3 L25.1571429,3 Z" id="Path"></path>
          </g>
          <path d="M6.16666667,16.825 C4.89370188,16.825 3.86666667,15.7813997 3.86666667,14.5 C3.86666667,13.2186003 4.89370188,12.175 6.16666667,12.175 C7.43963146,12.175 8.46666667,13.2186003 8.46666667,14.5 C8.46666667,15.7813997 7.43963146,16.825 6.16666667,16.825 Z M6.16666667,15.325 C6.6057846,15.325 6.96666667,14.9582973 6.96666667,14.5 C6.96666667,14.0417027 6.6057846,13.675 6.16666667,13.675 C5.72754873,13.675 5.36666667,14.0417027 5.36666667,14.5 C5.36666667,14.9582973 5.72754873,15.325 6.16666667,15.325 Z" id="Oval"></path>
          <path d="M26.9809524,16.825 C25.7079876,16.825 24.6809524,15.7813997 24.6809524,14.5 C24.6809524,13.2186003 25.7079876,12.175 26.9809524,12.175 C28.2539172,12.175 29.2809524,13.2186003 29.2809524,14.5 C29.2809524,15.7813997 28.2539172,16.825 26.9809524,16.825 Z M26.9809524,15.325 C27.4200703,15.325 27.7809524,14.9582973 27.7809524,14.5 C27.7809524,14.0417027 27.4200703,13.675 26.9809524,13.675 C26.5418344,13.675 26.1809524,14.0417027 26.1809524,14.5 C26.1809524,14.9582973 26.5418344,15.325 26.9809524,15.325 Z" id="Oval"></path>
          <path d="M30.4401016,9.37520596 C30.7023232,9.69585025 30.6549621,10.1683563 30.3343178,10.4305778 C30.0136736,10.6927993 29.5411675,10.6454383 29.278946,10.324794 L24.9154778,4.98894428 C24.4917132,4.45069489 23.8406849,4.15 23.1428571,4.15 L9.85714286,4.15 C9.17151066,4.15 8.54990218,4.45847263 8.07581593,4.99979404 L3.72105403,10.324794 C3.45883252,10.6454383 2.98632644,10.6927993 2.66568215,10.4305778 C2.34503787,10.1683563 2.29767685,9.69585025 2.55989835,9.37520596 L6.93074391,4.03119203 C7.69432483,3.15830819 8.71862539,2.65 9.85714286,2.65 L23.1428571,2.65 C24.2902674,2.65 25.3790351,3.15287654 26.0853397,4.05020596 L30.4401016,9.37520596 Z" id="Path"></path>
          <path d="M17.8285714,0.25 C18.1578637,0.25 18.4486401,0.464791418 18.5454364,0.779535565 L19.2835317,3.17953556 C19.4318484,3.66180411 19.0712267,4.15 18.5666667,4.15 L13.7690476,4.15 C13.2644876,4.15 12.9038659,3.66180411 13.0521826,3.17953556 L13.7902779,0.779535565 C13.8870742,0.464791418 14.1778506,0.25 14.5071429,0.25 L17.8285714,0.25 Z M15.0611547,1.75 L14.7843689,2.65 L17.5513453,2.65 L17.2745596,1.75 L15.0611547,1.75 Z" id="Path"></path>
        </g>
        <g id="Group" transform="translate(35.000000, 0.000000)">
          <g id="Group-15">
            <path d="M1.28209459,1.32957958 L1.28209459,26.7305214 L4.43918919,26.7305214 L4.43918919,1.32957958 L1.28209459,1.32957958 Z M0.217905405,17.545421 C0.217905405,13.8192781 0.217905405,8.23006366 0.217905405,0.777777778 C0.217905405,0.473026058 0.45613227,0.225975976 0.75,0.225975976 L4.97128378,0.225975976 C5.26515151,0.225975976 5.50337838,0.473026058 5.50337838,0.777777778 L5.50337838,27.2823232 C5.50337838,27.587075 5.26515151,27.834125 4.97128378,27.834125 L0.75,27.834125 C0.45613227,27.834125 0.217905405,27.587075 0.217905405,27.2823232 C0.217905405,25.8551099 0.217905405,24.8200154 0.217905405,24.1770399" id="Combined-Shape"></path>
          </g>
          <path d="M6.14893617,15.1444872 C6.15452137,15.138991 6.16012865,15.133495 6.16575807,15.1279994 C7.21237917,14.1062676 8.68148447,13.4948001 10.6079027,13.4948001 C12.4417079,13.4948001 13.3101344,13.9905144 14.6063982,15.3428208 L14.62913,15.3665359 C15.7827895,16.5700227 16.4448123,16.9281314 18.1033435,16.8793801 C18.2239585,16.8793801 18.45322,16.8657272 18.7532467,16.8240371 C19.2550394,16.7543106 19.7557147,16.6290826 20.2167908,16.4368766 C20.9560601,16.1287019 21.5164861,15.6810264 21.8510638,15.0701298 L21.8510638,5.2871735 C21.5046819,5.55943756 21.1079501,5.78520968 20.6698383,5.96784268 C20.107177,6.20239586 19.5109909,6.35151293 18.9159222,6.43420049 C18.557832,6.48395878 18.2752248,6.5007886 18.1298609,6.50019369 C16.1110225,6.59082547 15.1803018,6.08268216 13.8235984,4.64222496 L13.8129034,4.63086972 C12.7161893,3.4664624 12.1134355,3.11620856 10.662614,3.11620856 C9.04505663,3.11620856 7.85555459,3.60749184 7.00382701,4.42411713 C6.70841457,4.70735473 6.47578676,5.01051658 6.29989089,5.31192765 C6.2296871,5.43222723 6.18007502,5.53100358 6.14893617,5.60073673 L6.14893617,15.1444872 Z M5.03120795,5.31421714 C5.18774743,4.87185247 5.55175994,4.24808913 6.19678089,3.62965146 C7.25994693,2.61030173 8.73761814,2 10.662614,2 C12.4993687,2 13.3674111,2.50441029 14.6605348,3.8773503 L14.6712333,3.88870927 C15.8201564,5.10855914 16.4597735,5.45776934 18.1033435,5.38458003 C18.2239585,5.38458003 18.45322,5.37092705 18.7532467,5.32923696 C19.2550394,5.25951054 19.7557147,5.13428246 20.2167908,4.94207651 C20.9987462,4.61610751 21.5806088,4.13406284 21.9067523,3.46787138 C22.1697645,2.93063392 23,3.11267699 23,3.70758429 L23,15.2023844 C23,15.2853159 22.9809761,15.3672051 22.9443115,15.4420973 C22.4861883,16.3778749 21.6902521,17.0372691 20.6698383,17.4626428 C20.107177,17.697196 19.5109909,17.846313 18.9159222,17.9290006 C18.557832,17.9787589 18.2752248,17.9955887 18.1208086,17.9953307 C16.0919336,18.0552837 15.1460901,17.5436475 13.7883385,16.1272536 L13.7655904,16.1035217 C12.6655527,14.955925 12.0613045,14.6110087 10.6079027,14.6110087 C8.99176781,14.6110087 7.81421657,15.1011262 6.98013858,15.9153694 C6.69105613,16.1975773 6.46488252,16.4996601 6.29520422,16.8000022 C6.19674315,16.9742851 6.14087534,17.1031047 6.12069502,17.1633005 C5.91817484,17.7673965 5,17.6257935 5,16.9904644 L5,5.49566431 C5,5.43392121 5.01054588,5.37260605 5.03120795,5.31421714 Z" id="Shape"></path>
        </g>
      </g>
    </g>
  </g>
</svg>
