<?xml version="1.0" encoding="UTF-8"?>
<svg width="28px" height="35px" viewBox="0 0 28 35" version="1.1" xmlns="http://www.w3.org/2000/svg" xmlns:xlink="http://www.w3.org/1999/xlink">
    <!-- Generator: Sketch 52.6 (67491) - http://www.bohemiancoding.com/sketch -->
    <title>flag</title>
    <desc>Created with Sketch.</desc>
    <g id="RT---Flow" stroke="none" stroke-width="1" fill="none" fill-rule="evenodd">
        <g id="flag" fill="#FFFFFF" fill-rule="nonzero">
            <g id="Group-15">
                <path d="M1.61184211,1.61184211 L1.61184211,33.4107656 L5.71052632,33.4107656 L5.71052632,1.61184211 L1.61184211,1.61184211 Z M0.921052632,0.230263158 L6.40131579,0.230263158 C6.78282828,0.230263158 7.09210526,0.53954014 7.09210526,0.921052632 L7.09210526,34.101555 C7.09210526,34.4830675 6.78282828,34.7923445 6.40131579,34.7923445 L0.921052632,34.7923445 C0.53954014,34.7923445 0.230263158,34.4830675 0.230263158,34.101555 L0.230263158,0.921052632 C0.230263158,0.53954014 0.53954014,0.230263158 0.921052632,0.230263158 Z" id="Combined-Shape"></path>
            </g>
            <path d="M7.13815789,19.2629135 C7.14487401,19.2561106 7.15161669,19.249308 7.15838599,19.2425059 C8.41693256,17.9778648 10.1835102,17.2210254 12.5,17.2210254 C14.7051239,17.2210254 15.749394,17.8345921 17.3081323,19.5083995 L17.335467,19.5377526 C18.7227257,21.0273596 19.5187984,21.470606 21.5131579,21.4102645 C21.6581957,21.4102645 21.9338793,21.3933656 22.294657,21.341764 C22.8980554,21.2554606 23.5001102,21.1004605 24.0545474,20.862559 C24.943508,20.481118 25.617412,19.927011 26.0197368,19.1708782 L26.0197368,7.06209589 C25.6032177,7.39908874 25.1261535,7.67853651 24.5993304,7.90458917 C23.9227384,8.19490565 23.2058333,8.37947421 22.4902719,8.48182012 C22.0596737,8.54340808 21.7198427,8.56423906 21.5450448,8.56350272 C19.117421,8.67568155 17.998243,8.04673089 16.366827,6.26381558 L16.3539665,6.24976071 C15.0351838,4.80852411 14.3103812,4.375 12.5657895,4.375 C10.6207004,4.375 9.1903416,4.98308227 8.16615163,5.99385422 C7.81092249,6.34442947 7.53119095,6.71966583 7.31967874,7.09273516 C7.2352597,7.24163509 7.17560191,7.36389479 7.13815789,7.45020648 L7.13815789,19.2629135 Z M5.79410605,7.09556897 C5.98234249,6.54803535 6.42006221,5.77597686 7.19569047,5.01051017 C8.47413209,3.74881754 10.2510101,2.99342105 12.5657895,2.99342105 C14.7744601,2.99342105 15.8182685,3.61775118 17.3732308,5.31709759 L17.3860956,5.33115707 C18.7676588,6.84101728 19.536789,7.27324964 21.5131579,7.18266012 C21.6581957,7.18266012 21.9338793,7.16576124 22.294657,7.11415963 C22.8980554,7.02785627 23.5001102,6.87285613 24.0545474,6.63495463 C24.9948374,6.23148889 25.6945187,5.63484165 26.0867014,4.81026807 C26.4029698,4.14530635 27.4013158,4.37062882 27.4013158,5.10697096 L27.4013158,19.3345753 C27.4013158,19.4372232 27.3784398,19.5385809 27.3343512,19.6312782 C26.7834647,20.7895301 25.8263631,21.6056904 24.5993304,22.1321935 C23.9227384,22.42251 23.2058333,22.6070786 22.4902719,22.7094245 C22.0596737,22.7710124 21.7198427,22.7918434 21.5341594,22.7915241 C19.094467,22.8657304 17.957104,22.2324565 16.3244275,20.4793254 L16.2970732,20.4499514 C14.974294,19.029522 14.2476944,18.6026044 12.5,18.6026044 C10.5566214,18.6026044 9.14063323,19.2092437 8.13766665,20.2170672 C7.79004922,20.566368 7.51807876,20.9402688 7.31404309,21.3120151 C7.19564509,21.5277324 7.12846487,21.687178 7.10419832,21.7616848 C6.86067077,22.5094002 5.75657895,22.3341321 5.75657895,21.5477582 L5.75657895,7.32015386 C5.75657895,7.2437318 5.76926022,7.16783941 5.79410605,7.09556897 Z" id="Shape"></path>
        </g>
    </g>
</svg>