<?xml version="1.0" encoding="UTF-8"?>
<svg width="27px" height="20px" viewBox="0 0 27 20" version="1.1" xmlns="http://www.w3.org/2000/svg" xmlns:xlink="http://www.w3.org/1999/xlink">
    <!-- Generator: Sketch 52.6 (67491) - http://www.bohemiancoding.com/sketch -->
    <title>location</title>
    <desc>Created with Sketch.</desc>
    <g id="RT---Flow" stroke="none" stroke-width="1" fill="none" fill-rule="evenodd">
        <g id="location" fill="#CDCED0" fill-rule="nonzero">
            <g id="Group" transform="translate(15.625000, 6.250000)">
                <path d="M9.62828947,5.73632812 C9.62828947,3.62107115 7.8796281,1.890625 5.73684211,1.890625 C3.59405611,1.890625 1.84539474,3.62107115 1.84539474,5.73632812 C1.84539474,7.7092955 4.75380401,11.8769531 5.73684211,11.8769531 C6.00826506,11.8769531 7.02184657,10.9176125 7.9137218,9.66400471 C8.95151067,8.20530267 9.62828947,6.70192493 9.62828947,5.73632812 Z M10.6282895,5.73632812 C10.6282895,8.14162392 7.25935477,12.8769531 5.73684211,12.8769531 C4.1087314,12.8769531 0.845394737,8.20069588 0.845394737,5.73632812 C0.845394737,3.06642885 3.04410178,0.890625 5.73684211,0.890625 C8.42958243,0.890625 10.6282895,3.06642885 10.6282895,5.73632812 Z" id="Path"></path>
            </g>
            <g id="Group">
                <path d="M6.36538462,4.02734375 C6.36538462,2.75723522 5.30735172,1.6953125 4.07692308,1.6953125 C2.816354,1.6953125 1.78846154,2.73926579 1.78846154,4.02734375 C1.78846154,5.24034884 3.56393756,7.87304688 4.07692308,7.87304688 C4.49382199,7.87304688 6.36538462,5.1787008 6.36538462,4.02734375 Z M7.36538462,4.02734375 C7.36538462,5.66961913 5.14020067,8.87304687 4.07692308,8.87304687 C2.90919205,8.87304687 0.788461538,5.72840116 0.788461538,4.02734375 C0.788461538,2.19042171 2.26056907,0.6953125 4.07692308,0.6953125 C5.86045963,0.6953125 7.36538462,2.2057703 7.36538462,4.02734375 Z" id="Path"></path>
            </g>
            <path d="M21.3125,18.46875 C21.5886424,18.46875 21.8125,18.6926076 21.8125,18.96875 C21.8125,19.2448924 21.5886424,19.46875 21.3125,19.46875 L6.58943806,19.4685971 C4.48503457,19.4165337 2.78771657,18.0736314 2.84486066,16.3727578 C2.84486066,14.6434081 4.61582068,13.316231 6.7024734,13.3678924 L10.3431352,13.4135498 C11.9106661,13.4523308 13.1447288,12.5184437 13.1821167,11.4084922 C13.1821167,10.2795878 11.9866001,9.3125 10.425173,9.3125 L3.83437164,9.3125 C3.55822926,9.3125 3.33437164,9.08864237 3.33437164,8.8125 C3.33437164,8.53635763 3.55822926,8.3125 3.83437164,8.3125 L10.425173,8.3125 C12.4977377,8.3125 14.1821167,9.67504263 14.1818375,11.4251991 C14.1240285,13.1543182 12.3926398,14.4645609 10.324504,14.4133576 L6.68384222,14.3677002 C5.10340147,14.3285998 3.84486066,15.2717643 3.84458146,16.3894648 C3.80822361,17.4769596 5.01185463,18.4292614 6.60180436,18.46875 L21.3125,18.46875 Z" id="Path"></path>
        </g>
    </g>
</svg>