<?xml version="1.0" encoding="UTF-8"?>
<svg width="45px" height="35px" viewBox="0 0 45 35" version="1.1" xmlns="http://www.w3.org/2000/svg" xmlns:xlink="http://www.w3.org/1999/xlink">
    <!-- Generator: Sketch 52.6 (67491) - http://www.bohemiancoding.com/sketch -->
    <title>man car</title>
    <desc>Created with Sketch.</desc>
    <g id="RT---Flow" stroke="none" stroke-width="1" fill="none" fill-rule="evenodd">
        <g id="man-car" fill="#FFFFFF" fill-rule="nonzero">
            <g id="vehicle-icons-17" transform="translate(0.000000, 12.297297)">
                <path d="M29.1418919,17.0506757 L29.1418919,10.6655405 L2.07432432,10.6655405 L2.07432432,17.0506757 L29.1418919,17.0506757 Z M29.1531532,18.4695946 L2.06306306,18.4695946 C1.24975712,18.4695946 0.655405405,17.8656566 0.655405405,17.0506757 L0.655405405,10.6655405 C0.655405405,9.85055965 1.24975712,9.24662162 2.06306306,9.24662162 L29.1531532,9.24662162 C29.9664591,9.24662162 30.5608108,9.85055965 30.5608108,10.6655405 L30.5608108,17.0506757 C30.5608108,17.8097377 29.95472,18.4695946 29.1531532,18.4695946 Z" id="Path"></path>
                <g id="Group" transform="translate(2.094595, 16.317568)">
                    <path d="M5.61261261,3.78378378 L5.61261261,2.15202703 L2.28378378,2.15202703 L2.28378378,3.78378378 L5.61261261,3.78378378 Z M5.62387387,5.2027027 L2.27252252,5.2027027 C1.45921658,5.2027027 0.864864865,4.59876467 0.864864865,3.78378378 L0.864864865,1.44256757 C0.864864865,1.05074393 1.18250068,0.733108108 1.57432432,0.733108108 L6.32207207,0.733108108 C6.71389571,0.733108108 7.03153153,1.05074393 7.03153153,1.44256757 L7.03153153,3.78378378 C7.03153153,4.59876467 6.43717982,5.2027027 5.62387387,5.2027027 Z" id="Path"></path>
                    <path d="M21.4031532,5.2027027 C20.5898472,5.2027027 19.9954955,4.59876467 19.9954955,3.78378378 L19.9954955,1.44256757 C19.9954955,1.05074393 20.3131313,0.733108108 20.704955,0.733108108 L25.4527027,0.733108108 C25.8445263,0.733108108 26.1621622,1.05074393 26.1621622,1.44256757 L26.1621622,3.78378378 C26.1621622,4.59876467 25.5678105,5.2027027 24.7545045,5.2027027 L21.4031532,5.2027027 Z M24.7432432,3.78378378 L24.7432432,2.15202703 L21.4144144,2.15202703 L21.4144144,3.78378378 L24.7432432,3.78378378 Z" id="Path"></path>
                </g>
                <path d="M5.83333333,15.9155405 C4.62917745,15.9155405 3.65765766,14.9283511 3.65765766,13.7162162 C3.65765766,12.5040814 4.62917745,11.5168919 5.83333333,11.5168919 C7.03748922,11.5168919 8.00900901,12.5040814 8.00900901,13.7162162 C8.00900901,14.9283511 7.03748922,15.9155405 5.83333333,15.9155405 Z M5.83333333,14.4966216 C6.24871516,14.4966216 6.59009009,14.1497406 6.59009009,13.7162162 C6.59009009,13.2826918 6.24871516,12.9358108 5.83333333,12.9358108 C5.4179515,12.9358108 5.07657658,13.2826918 5.07657658,13.7162162 C5.07657658,14.1497406 5.4179515,14.4966216 5.83333333,14.4966216 Z" id="Oval"></path>
                <path d="M25.5225225,15.9155405 C24.3183666,15.9155405 23.3468468,14.9283511 23.3468468,13.7162162 C23.3468468,12.5040814 24.3183666,11.5168919 25.5225225,11.5168919 C26.7266784,11.5168919 27.6981982,12.5040814 27.6981982,13.7162162 C27.6981982,14.9283511 26.7266784,15.9155405 25.5225225,15.9155405 Z M25.5225225,14.4966216 C25.9379044,14.4966216 26.2792793,14.1497406 26.2792793,13.7162162 C26.2792793,13.2826918 25.9379044,12.9358108 25.5225225,12.9358108 C25.1071407,12.9358108 24.7657658,13.2826918 24.7657658,13.7162162 C24.7657658,14.1497406 25.1071407,14.4966216 25.5225225,14.4966216 Z" id="Oval"></path>
                <path d="M28.7946907,8.86843807 C29.0427381,9.17175024 28.9979372,9.61871545 28.694625,9.86676282 C28.3913128,10.1148102 27.9443476,10.0700092 27.6963002,9.76669706 L23.5686953,4.71927161 C23.1678369,4.21011679 22.5519993,3.92567568 21.8918919,3.92567568 L9.32432432,3.92567568 C8.67575333,3.92567568 8.0877453,4.21747411 7.63928534,4.7295349 L3.51991597,9.76669706 C3.2718686,10.0700092 2.82490339,10.1148102 2.52159123,9.86676282 C2.21827907,9.61871545 2.1734781,9.17175024 2.42152547,8.86843807 L6.5561091,3.81328976 C7.27841538,2.98758883 8.24734834,2.50675676 9.32432432,2.50675676 L21.8918919,2.50675676 C22.97728,2.50675676 24.0071953,2.98245078 24.6753214,3.83127591 L28.7946907,8.86843807 Z" id="Path"></path>
                <path d="M16.8648649,0.236486486 C17.1763576,0.236486486 17.4514163,0.439667557 17.5429804,0.737398507 L18.2411786,3.00766878 C18.3814782,3.46386876 18.0403496,3.92567568 17.5630631,3.92567568 L13.0247748,3.92567568 C12.5474883,3.92567568 12.2063596,3.46386876 12.3466592,3.00766878 L13.0448574,0.737398507 C13.1364215,0.439667557 13.4114803,0.236486486 13.722973,0.236486486 L16.8648649,0.236486486 Z M14.2470382,1.65540541 L13.9852139,2.50675676 L16.602624,2.50675676 L16.3407996,1.65540541 L14.2470382,1.65540541 Z" id="Path"></path>
            </g>
            <g id="map-location-icons-09" transform="translate(31.216216, 0.000000)">
                <path d="M7.09459459,10.88341 C4.39622571,10.88341 2.21771772,8.63715791 2.21771772,5.87694077 C2.21771772,3.11672364 4.39622571,0.870471535 7.09459459,0.870471535 C9.79296348,0.870471535 11.9714715,3.11672364 11.9714715,5.87694077 C11.9714715,8.63715791 9.79296348,10.88341 7.09459459,10.88341 Z M7.09459459,9.46449109 C8.99942788,9.46449109 10.5525526,7.86306957 10.5525526,5.87694077 C10.5525526,3.89081197 8.99942788,2.28939045 7.09459459,2.28939045 C5.18976131,2.28939045 3.63663664,3.89081197 3.63663664,5.87694077 C3.63663664,7.86306957 5.18976131,9.46449109 7.09459459,9.46449109 Z" id="Oval"></path>
                <path d="M9.30567053,32.7134353 C9.29724089,32.8480695 9.25060185,32.97751 9.17122183,33.08658 C9.0629506,33.235347 8.88191484,33.4279255 8.62412175,33.6168393 C8.18995899,33.934999 7.67674362,34.1295285 7.09459459,34.1295285 C6.51244557,34.1295285 5.9992302,33.934999 5.56506744,33.6168393 C5.416002,33.5076024 5.28624386,33.3906906 5.17501842,33.2723735 C5.13470474,33.2294894 5.09904975,33.1887291 5.06800942,33.1508179 C5.04959146,33.12807 5.04959146,33.12807 5.035904,33.1104586 C5.02457716,33.0955941 5.02457716,33.0955941 5.01796736,33.08658 C4.93858734,32.97751 4.89194829,32.8480695 4.88351866,32.7134353 L4.29895663,23.3770786 C4.23031287,23.353513 4.15684943,23.3277216 4.0789678,23.299699 C3.55288573,23.1104097 3.00919364,22.8833875 2.4745909,22.6174848 C1.61044602,22.1876733 1.22462717,20.5878563 0.931918789,17.7366538 C0.751076802,15.9751152 0.646396396,13.7903615 0.646396396,12.5662889 C0.646396396,11.3056306 1.94760966,10.7555087 4.12622265,10.4484869 C4.77818129,10.3566093 5.47176137,10.2979635 6.16462643,10.2654161 C6.40659739,10.2540495 6.63146286,10.2467366 6.83372808,10.2426645 C6.95634479,10.240196 7.04514746,10.2393617 7.09459459,10.2393617 C7.14404173,10.2393617 7.2328444,10.240196 7.35546111,10.2426645 C7.55772633,10.2467366 7.78259179,10.2540495 8.02456276,10.2654161 C8.71742782,10.2979635 9.4110079,10.3566093 10.0629665,10.4484869 C12.2415795,10.7555087 13.5427928,11.3056306 13.5427928,12.5662889 C13.5427928,13.8926969 13.4542002,15.9984905 13.2831785,17.7337841 C13.001921,20.5875984 12.6068311,22.1985539 11.7002943,22.6244007 C11.1426322,22.8863632 10.5986411,23.1107402 10.0892078,23.2980239 C10.0189287,23.3238607 9.9526722,23.3477863 9.89068809,23.3698031 L9.30567053,32.7134353 Z M6.4037764,32.4723315 C6.61009788,32.6235263 6.83984422,32.7106095 7.09459459,32.7106095 C7.34934497,32.7106095 7.57909131,32.6235263 7.78541279,32.4723315 C7.8310981,32.4388528 7.87120089,32.405852 7.90513078,32.3755148 L8.50438953,22.8044288 C8.5229178,22.5085038 8.72352121,22.2553112 9.00736558,22.169595 C9.11409311,22.1373652 9.3187098,22.0695165 9.59960601,21.9662502 C10.0722486,21.792492 10.5786516,21.5836187 11.097003,21.3401225 C11.6348206,21.087482 12.1238739,16.1252412 12.1238739,12.5662889 C12.1238739,12.5451084 12.0094374,12.4322194 11.6603884,12.2846498 C11.2345578,12.1046188 10.6162991,11.9594049 9.86496139,11.8535224 C9.26157093,11.7684894 8.61013412,11.713407 7.95798229,11.6827721 C7.56645408,11.66438 7.263488,11.6582806 7.09459459,11.6582806 C6.92570119,11.6582806 6.62273511,11.66438 6.2312069,11.6827721 C5.57905507,11.713407 4.92761826,11.7684894 4.3242278,11.8535224 C3.57289005,11.9594049 2.95463135,12.1046188 2.52880082,12.2846498 C2.17975174,12.4322194 2.06531532,12.5451084 2.06531532,12.5662889 C2.06531532,15.8818249 2.60054716,21.0953906 3.10649018,21.3470384 C3.58812243,21.5865944 4.08201479,21.7928224 4.55935803,21.964575 C4.84370552,22.0668859 5.05640081,22.1341177 5.16918985,22.1659074 C5.45921959,22.2476525 5.66596987,22.5036881 5.68479966,22.8044288 L6.28398771,32.3743856 C6.3205367,32.4076838 6.36058307,32.4406789 6.4037764,32.4723315 Z" id="Path"></path>
            </g>
        </g>
    </g>
</svg>