<?xml version="1.0" encoding="UTF-8"?>
<svg width="28px" height="17px" viewBox="0 0 28 17" version="1.1" xmlns="http://www.w3.org/2000/svg" xmlns:xlink="http://www.w3.org/1999/xlink">
    <!-- Generator: Sketch 52.6 (67491) - http://www.bohemiancoding.com/sketch -->
    <title>taxi</title>
    <desc>Created with Sketch.</desc>
    <g id="RT---Flow" stroke="none" stroke-width="1" fill="none" fill-rule="evenodd">
        <g id="taxi" fill="#CDCED0" fill-rule="nonzero">
            <path d="M24.088,12.824 C24.0985207,12.824 24.108,12.8138436 24.108,12.804 L24.108,8.124 C24.108,8.08814237 24.1238576,8.104 24.088,8.104 L3.912,8.104 C3.87614237,8.104 3.892,8.08814237 3.892,8.124 L3.892,12.804 C3.892,12.8398576 3.87614237,12.824 3.912,12.824 L24.088,12.824 Z M24.088,13.824 L3.912,13.824 C3.32385763,13.824 2.892,13.3921424 2.892,12.804 L2.892,8.124 C2.892,7.53585763 3.32385763,7.104 3.912,7.104 L24.088,7.104 C24.6761424,7.104 25.108,7.53585763 25.108,8.124 L25.108,12.804 C25.108,13.3512993 24.6668126,13.824 24.088,13.824 Z" id="Path"></path>
            <g id="Group" transform="translate(3.640000, 11.960000)">
                <path d="M1.968,1.864 L1.968,3.08 C1.968,3.11585763 1.95214237,3.1 1.988,3.1 L4.484,3.1 C4.51985763,3.1 4.504,3.11585763 4.504,3.08 L4.504,1.864 L1.968,1.864 Z M4.484,4.1 L1.988,4.1 C1.39985763,4.1 0.968,3.66814237 0.968,3.08 L0.968,1.364 C0.968,1.08785763 1.19185763,0.864 1.468,0.864 L5.004,0.864 C5.28014237,0.864 5.504,1.08785763 5.504,1.364 L5.504,3.08 C5.504,3.66814237 5.07214237,4.1 4.484,4.1 Z" id="Path"></path>
                <path d="M16.236,4.1 C15.6478576,4.1 15.216,3.66814237 15.216,3.08 L15.216,1.364 C15.216,1.08785763 15.4398576,0.864 15.716,0.864 L19.252,0.864 C19.5281424,0.864 19.752,1.08785763 19.752,1.364 L19.752,3.08 C19.752,3.66814237 19.3201424,4.1 18.732,4.1 L16.236,4.1 Z M16.216,3.08 C16.216,3.11585763 16.2001424,3.1 16.236,3.1 L18.732,3.1 C18.7678576,3.1 18.752,3.11585763 18.752,3.08 L18.752,1.864 L16.216,1.864 L16.216,3.08 Z" id="Path"></path>
            </g>
            <path d="M6.72,11.952 C5.84076268,11.952 5.128,11.2392373 5.128,10.36 C5.128,9.48076268 5.84076268,8.768 6.72,8.768 C7.59923732,8.768 8.312,9.48076268 8.312,10.36 C8.312,11.2392373 7.59923732,11.952 6.72,11.952 Z M6.72,10.952 C7.04695257,10.952 7.312,10.6869526 7.312,10.36 C7.312,10.0330474 7.04695257,9.768 6.72,9.768 C6.39304743,9.768 6.128,10.0330474 6.128,10.36 C6.128,10.6869526 6.39304743,10.952 6.72,10.952 Z" id="Oval"></path>
            <path d="M21.384,11.952 C20.5047627,11.952 19.792,11.2392373 19.792,10.36 C19.792,9.48076268 20.5047627,8.768 21.384,8.768 C22.2632373,8.768 22.976,9.48076268 22.976,10.36 C22.976,11.2392373 22.2632373,11.952 21.384,11.952 Z M21.384,10.952 C21.7109526,10.952 21.976,10.6869526 21.976,10.36 C21.976,10.0330474 21.7109526,9.768 21.384,9.768 C21.0570474,9.768 20.792,10.0330474 20.792,10.36 C20.792,10.6869526 21.0570474,10.952 21.384,10.952 Z" id="Oval"></path>
            <path d="M23.7965542,6.81644085 C23.9730419,7.02882429 23.9439426,7.34406658 23.7315591,7.52055423 C23.5191757,7.69704187 23.2039334,7.66794258 23.0274458,7.45555915 L19.9535656,3.75634752 C19.6498746,3.37673372 19.1818604,3.164 18.68,3.164 L9.32,3.164 C8.82650919,3.164 8.38005817,3.38203422 8.04055423,3.76355915 L4.97255423,7.45555915 C4.79606658,7.66794258 4.48082429,7.69704187 4.26844085,7.52055423 C4.05605742,7.34406658 4.02695813,7.02882429 4.20344577,6.81644085 L7.28229534,3.11181808 C7.8152295,2.51226715 8.52834796,2.164 9.32,2.164 L18.68,2.164 C19.4781396,2.164 20.2358397,2.50840913 20.7285542,3.12444085 L23.7965542,6.81644085 Z" id="Path"></path>
            <path d="M24.7898584,7.03770676 C25.3741071,7.08909917 25.7692348,7.10530911 26.0152102,7.08373202 C25.9647281,7.02288748 25.8982432,6.94934997 25.8144466,6.86555339 C25.7801955,6.83130231 25.7463512,6.80101776 25.7129703,6.77451844 C25.3895619,6.51778196 25.0302904,6.61176724 24.6029413,7.02096925 C24.6945827,7.02925645 24.6958987,7.02937316 24.7898584,7.03770676 Z M23.1903536,7.19225807 C23.3060508,6.99788678 23.5029156,6.72193529 23.7677514,6.44308309 C24.5553805,5.61376889 25.4670571,5.30251157 26.334722,5.99130405 C26.3984565,6.0418994 26.4607276,6.09762077 26.5215534,6.15844661 C27.292476,6.9293692 27.4099572,7.6867263 26.563048,7.98669034 C26.1739373,8.12450819 25.6775894,8.11965576 24.7022335,8.0338603 C24.6050669,8.02524219 24.6050669,8.02524219 24.508779,8.0165346 C23.9886411,7.96942507 23.8158197,7.9555954 23.6014942,7.94765742 C23.2221047,7.93360595 22.9961689,7.51848828 23.1903536,7.19225807 Z" id="Path"></path>
            <path d="M4.80964644,7.19225807 C5.00383109,7.51848828 4.77789531,7.93360595 4.39850583,7.94765742 C4.18418026,7.9555954 4.01135889,7.96942507 3.49122098,8.0165346 C3.39493306,8.02524219 3.39493306,8.02524219 3.2977665,8.0338603 C2.32241057,8.11965576 1.82606274,8.12450819 1.43695203,7.98669034 C0.590042768,7.6867263 0.707524021,6.9293692 1.47844661,6.15844661 C1.53927245,6.09762077 1.60154353,6.0418994 1.66527798,5.99130405 C2.53294292,5.30251157 3.44461947,5.61376889 4.23224857,6.44308309 C4.49708438,6.72193529 4.69394924,6.99788678 4.80964644,7.19225807 Z M2.28702971,6.77451844 C2.25364878,6.80101776 2.21980448,6.83130231 2.18555339,6.86555339 C2.10175682,6.94934997 2.03527195,7.02288748 1.98478975,7.08373202 C2.23076523,7.10530911 2.62589286,7.08909917 3.21014161,7.03770676 C3.30410131,7.02937316 3.30541725,7.02925645 3.39705865,7.02096925 C2.96970961,6.61176724 2.61043807,6.51778196 2.28702971,6.77451844 Z" id="Path"></path>
            <path d="M14.936,0.5 C15.1546925,0.5 15.3480095,0.642124905 15.41324,0.850862503 L15.93324,2.5148625 C16.0338541,2.8368278 15.7933201,3.164 15.456,3.164 L12.076,3.164 C11.7386799,3.164 11.4981459,2.8368278 11.59876,2.5148625 L12.11876,0.850862503 C12.1839905,0.642124905 12.3773075,0.5 12.596,0.5 L14.936,0.5 Z M12.9635955,1.5 L12.7560955,2.164 L14.7759045,2.164 L14.5684045,1.5 L12.9635955,1.5 Z" id="Path"></path>
        </g>
    </g>
</svg>