<?xml version="1.0" encoding="UTF-8"?>
<svg width="24px" height="35px" viewBox="0 0 24 35" version="1.1" xmlns="http://www.w3.org/2000/svg" xmlns:xlink="http://www.w3.org/1999/xlink">
    <!-- Generator: Sketch 52.6 (67491) - http://www.bohemiancoding.com/sketch -->
    <title>walking</title>
    <desc>Created with Sketch.</desc>
    <g id="RT---Flow" stroke="none" stroke-width="1" fill="none" fill-rule="evenodd">
        <path d="M14.5833333,7.5 C12.5198814,7.5 10.8333333,5.81345198 10.8333333,3.75 C10.8333333,1.68654802 12.5198814,0 14.5833333,0 C16.6467853,0 18.3333333,1.68654802 18.3333333,3.75 C18.3333333,5.81345198 16.6467853,7.5 14.5833333,7.5 Z M14.5833333,6.66666667 C16.186548,6.66666667 17.5,5.35321469 17.5,3.75 C17.5,2.14678531 16.186548,0.833333333 14.5833333,0.833333333 C12.9801186,0.833333333 11.6666667,2.14678531 11.6666667,3.75 C11.6666667,5.35321469 12.9801186,6.66666667 14.5833333,6.66666667 Z M10.0022956,22.4454338 L7.69339983,33.0151776 C7.4402751,34.1739408 6.41428913,35 5.22820134,35 C5.11177928,35 4.99562749,34.9887943 4.88135262,34.9665378 C3.89779966,34.7749785 3.2557619,33.8223619 3.44732116,32.8388089 L7.42308047,12.4254397 L4.06409991,13.6812164 L4.06409991,17.1958912 C4.06409991,18.3181614 3.15432016,19.2279412 2.03204995,19.2279412 C0.909779754,19.2279412 9.25185854e-17,18.3181614 0,17.1958912 L7.40148683e-16,11.7783389 C6.9388939e-16,11.2628594 0.316432373,10.8002435 0.796846281,10.6133704 L10.2424949,6.93918991 C10.6947058,6.75805204 11.1509933,6.66666667 11.6089653,6.66666667 C12.8995658,6.66666667 14.0804952,7.32086231 14.7135204,8.40759378 L16.2438855,10.9888209 C17.4455737,12.9275872 19.4110333,14.2792402 21.6474558,14.6506617 C22.6201603,14.812207 23.3333226,15.6535785 23.3333226,16.639644 L23.3333,16.8908566 C23.3333,16.9770208 23.3272255,17.0630778 23.3151216,17.1483877 C23.1728912,18.1508523 22.2449325,18.8482098 21.2424679,18.7059793 C18.584644,18.3288852 16.1767401,17.0557758 14.3555964,15.1127989 L13.5957996,18.9171067 L16.506284,21.8316699 C16.740326,22.0660398 16.8717819,22.3837169 16.8717819,22.7149343 L16.8717819,32.96795 C16.8717819,34.0902202 15.9620021,35 14.8397319,35 C13.7174617,35 12.8076819,34.0902202 12.8076819,32.96795 L12.8076819,25.2400542 C12.8076819,25.1244226 12.7596305,25.0139909 12.6750216,24.9351747 L10.0022956,22.4454338 Z M5.22820134,34.1666667 C6.02258193,34.1666667 6.70973457,33.6134147 6.87926449,32.8373347 L9.34420688,21.5532354 C9.41310608,21.2378262 9.79905034,21.1172201 10.0352809,21.3372773 L13.2430342,24.3254156 C13.496861,24.5618644 13.6410153,24.8931593 13.6410153,25.2400542 L13.6410153,32.96795 C13.6410153,33.629983 14.177699,34.1666667 14.8397319,34.1666667 C15.5017648,34.1666667 16.0384485,33.629983 16.0384485,32.96795 L16.0384485,22.7149343 C16.0384485,22.6045285 15.9946299,22.4986361 15.9166159,22.4205128 L12.8487454,19.348343 C12.7504058,19.2498656 12.7077253,19.108792 12.7349822,18.9723165 L13.7042122,14.1193753 C13.773297,13.7734673 14.2141231,13.6645368 14.4363702,13.9384551 C16.1780132,16.0850196 18.6263743,17.4931268 21.3595295,17.880909 C21.9063204,17.9584881 22.4124722,17.5781169 22.4900513,17.031326 C22.4966533,16.9847941 22.4999666,16.9378546 22.4999666,16.890819 L22.4999893,16.6396064 C22.4999893,16.0611249 22.0815922,15.5675101 21.5109271,15.472735 C19.0338819,15.0613511 16.8618756,13.5676553 15.5313276,11.4208376 L13.9950812,8.82982497 C13.5122909,8.00102456 12.6078601,7.5 11.6089653,7.5 C11.2592458,7.5 10.9078416,7.57037933 10.5484791,7.71430324 L1.09894876,11.3900161 C0.938810791,11.4523071 0.833333333,11.6065124 0.833333333,11.7783389 L0.833333333,17.1958912 C0.833333333,17.8579241 1.37001705,18.3946078 2.03204995,18.3946078 C2.69408286,18.3946078 3.23076658,17.8579241 3.23076658,17.1958912 L3.23076658,13.3921569 C3.23076658,13.2183187 3.33869228,13.0627486 3.50152315,13.0018732 L7.82844284,11.3842261 C8.13350186,11.2701778 8.44559552,11.5344899 8.38333495,11.8541642 L4.2652852,32.9981177 C4.16170973,33.5299215 4.50885746,34.0449983 5.04066136,34.1485738 C5.10244941,34.1606078 5.16525231,34.1666667 5.22820134,34.1666667 Z" id="walking" fill="#FFFFFF" fill-rule="nonzero"></path>
    </g>
</svg>