<svg xmlns="http://www.w3.org/2000/svg" width="18" height="19">
  <g fill="#9B9DA2">
    <path
      d="M16.5 17.02V3.55h-15v13.47h15zm-15.04 1c-.54 0-.96-.38-.96-.92V3.47c0-.54.42-.92.96-.92h15.08c.54 0 .96.38.96.92V17.1c0 .54-.42.92-.96.92H1.46z"/>
    <path
      d="M4.5 3.38a.5.5 0 1 1-1 0V.71a.5.5 0 0 1 1 0v2.67zm10 0a.5.5 0 1 1-1 0V.71a.5.5 0 1 1 1 0v2.67zM1 6.21a.5.5 0 1 1 0-1h16a.5.5 0 1 1 0 1H1zm4.84 2.82H4.56v1.29h1.28V9.03zm.03 2.29H4.54a.95.95 0 0 1-.98-.98V9.01c0-.57.41-.98.98-.98h1.33c.56 0 .97.41.97.98v1.33a.98.98 0 0 1-.97.98zm3.77-.98v-.02h.02-.02V9.02H8.35v1.29h1.29v.02zm.02.98H8.33a.95.95 0 0 1-.98-.98V9.01c0-.57.42-.98.98-.98h1.33c.56 0 .98.41.98.98v1.33c0 .51-.47.98-.98.98zm3.73-2.29H12.1v1.29h1.29V9.03zm.02 2.29h-1.33a.95.95 0 0 1-.98-.98V9.01c0-.57.42-.98.98-.98h1.33c.56 0 .98.41.98.98v1.33a.98.98 0 0 1-.98.98zM5.84 12.84H4.56v1.29h1.28v-1.29zm.03 2.29H4.54a.95.95 0 0 1-.98-.98v-1.33c0-.57.41-.98.98-.98h1.33c.56 0 .97.41.97.98v1.33a.98.98 0 0 1-.97.98zm3.77-.98v-.02h.02a.1.1 0 0 1-.02 0v-1.29H8.35v1.29h1.29v.02zm.02.98H8.33a.95.95 0 0 1-.98-.98v-1.33c0-.56.42-.98.98-.98h1.33c.56 0 .98.42.98.98v1.33c0 .51-.47.98-.98.98zm3.73-2.29H12.1v1.29h1.29v-1.29zm.02 2.29h-1.33a.95.95 0 0 1-.98-.98v-1.33c0-.57.42-.98.98-.98h1.33c.56 0 .98.41.98.98v1.33a.98.98 0 0 1-.98.98z"/>
  </g>
</svg>
