<svg width="25" height="14" xmlns="http://www.w3.org/2000/svg">
  <g fill="#00AFAA" fill-rule="nonzero">
    <path
      d="M21.64 11.39c.09 0 .15-.07.15-.14V7.19c0-.1-.04-.15-.15-.15H3.37c-.11 0-.16.05-.16.15v4.06c0 .1.05.14.16.14h18.27zm0 .62H3.37c-.46 0-.79-.32-.79-.76V7.19c0-.45.33-.77.79-.77h18.27c.45 0 .78.32.78.77v4.06c0 .4-.34.76-.78.76z"/>
    <path
      d="M4.9 12v1.12c0 .09.04.13.15.13h2.27c.12 0 .16-.04.16-.13V12H4.9zm2.42 1.87H5.05c-.45 0-.78-.31-.78-.75V11.7c0-.17.14-.31.31-.31H7.8c.18 0 .32.14.32.31v1.43c0 .44-.34.75-.79.75zM18 13.87c-.45 0-.79-.31-.79-.75V11.7c0-.17.14-.31.32-.31h3.2c.18 0 .32.14.32.31v1.43c0 .44-.33.75-.78.75H18zM17.84 12v1.12c0 .09.04.13.16.13h2.27c.1 0 .15-.04.15-.13V12h-2.58zM11.09 9.84h2.83V8.6h-2.83v1.24zm-.32-1.86h3.46c.18 0 .32.13.32.3v1.87c0 .17-.14.3-.32.3h-3.46a.31.31 0 0 1-.31-.3V8.29c0-.18.14-.31.31-.31zM5.73 10.46c-.7 0-1.26-.56-1.26-1.24 0-.69.57-1.24 1.26-1.24.7 0 1.26.55 1.26 1.24 0 .68-.56 1.24-1.26 1.24zm0-.62c.35 0 .63-.28.63-.62a.63.63 0 0 0-.63-.62.63.63 0 0 0-.63.62c0 .34.28.62.63.62zM19.27 10.46c-.7 0-1.26-.56-1.26-1.24 0-.69.57-1.24 1.26-1.24.7 0 1.26.55 1.26 1.24 0 .68-.56 1.24-1.26 1.24zm0-.62c.35 0 .63-.28.63-.62a.63.63 0 0 0-.63-.62.63.63 0 0 0-.63.62c0 .34.29.62.63.62zM21.1 6.23a.3.3 0 0 1-.05.43.32.32 0 0 1-.45-.04L17.83 3.3a1.6 1.6 0 0 0-1.26-.59H8.12c-.49 0-.93.22-1.26.6L4.09 6.61a.32.32 0 0 1-.45.04.3.3 0 0 1-.04-.43l2.78-3.34a2.3 2.3 0 0 1 1.74-.8h8.45c.68 0 1.33.29 1.75.81l2.77 3.33z"/>
    <path
      d="M22.07 6.36l.18.02c.75.06 1.18.06 1.4 0a1.91 1.91 0 0 0-.41-.42c-.42-.3-.88-.15-1.38.32a3.1 3.1 0 0 0-.07.06l.28.02zm-1.03-.11a4 4 0 0 1 .38-.42c.7-.65 1.46-.89 2.19-.37l.16.13c.67.6.76 1.16.1 1.37a4.74 4.74 0 0 1-1.86.02 17 17 0 0 0-.86-.06.31.31 0 0 1-.25-.48l.14-.2zM4.1 6.44c.14.2 0 .47-.25.48A17 17 0 0 0 2.81 7c-.88.07-1.34.07-1.67-.04-.67-.2-.57-.77.1-1.37l.16-.13c.73-.52 1.5-.28 2.18.37a4 4 0 0 1 .53.61zm-.96-.16c-.5-.47-.95-.62-1.37-.32l-.1.09c-.17.14-.27.26-.32.33a5.03 5.03 0 0 0 1.59-.02l.27-.02a3.1 3.1 0 0 0-.07-.06zM13.44.53c.13 0 .26.1.3.22l.48 1.55c.06.2-.09.4-.3.4h-3.15a.31.31 0 0 1-.3-.4l.48-1.55a.31.31 0 0 1 .3-.22h2.19zm-1.95.62l-.3.93h2.3l-.29-.93H11.5z"/>
  </g>
</svg>
