<svg width="40" height="40" xmlns="http://www.w3.org/2000/svg" xmlns:xlink="http://www.w3.org/1999/xlink">
  <defs>
    <path d="M40 20c0 11.03-8.97 20-20 20S0 31.03 0 20 8.97 0 20 0s20 8.97 20 20z" id="a"/>
  </defs>
  <g transform="matrix(-1 0 0 1 40 0)" fill="none" fill-rule="evenodd">
    <mask id="b" fill="#fff">
      <use xlink:href="#a"/>
    </mask>
    <use fill="#FFF" xlink:href="#a"/>
    <use fill="#F2F2F2" xlink:href="#a"/>
    <g mask="url(#b)" fill="#00AFAA" fill-rule="nonzero">
      <path
        d="M20.85 25.12h-1.08c-.3 0-.55.2-.55.46s.25.47.55.47h1.08c.3 0 .55-.21.55-.47s-.25-.46-.55-.46zM21.5 27.29h-2.07c-.28 0-.52.2-.52.46s.24.47.52.47h2.07c.28 0 .52-.21.52-.47 0-.25-.24-.46-.52-.46zM18.7 21.4h-2.06a.53.53 0 0 0-.52.54c0 .3.24.54.52.54h.52v.54c0 .3.23.55.51.55.29 0 .52-.25.52-.55v-.54h.52c.28 0 .51-.24.51-.54 0-.3-.23-.54-.51-.54zM23.98 21.4H21.9a.53.53 0 0 0-.51.54c0 .3.23.54.51.54h.52v.54c0 .3.23.55.52.55.28 0 .51-.25.51-.55v-.54h.52c.28 0 .52-.24.52-.54 0-.3-.24-.54-.52-.54z"/>
      <path
        d="M32.8 39.2l-.7-2.16a6.32 6.32 0 0 0-1.44-2.25c-.43-.37-.88-.7-1.36-1.02l-.04-.03a6.38 6.38 0 0 0-3.04-.8l-1.7-1.7a16.37 16.37 0 0 1 .36-3c.63-.7 1.03-1.6 1.12-2.54l.2.04c.1 0 .19-.02.28-.05.26-.09 1.08-.36 1.08-3.6 0-.35 0-1.4-.72-1.73a.9.9 0 0 0-.36-.07c.08-.58.05-1.16-.1-1.72 1.43-.91 2.21-2.1 2.21-3.38 0-2.78-3.64-4.96-8.28-4.96-4.64 0-8.28 2.18-8.28 4.96 0 1.28.79 2.47 2.2 3.38a4.54 4.54 0 0 0-.09 1.72.9.9 0 0 0-.36.07c-.72.32-.72 1.38-.72 1.73 0 3.24.82 3.51 1.08 3.6.1.03.19.05.28.05.07 0 .14-.02.2-.04.1.95.49 1.84 1.13 2.54a16.28 16.28 0 0 1 .35 3l-1.7 1.7a6.39 6.39 0 0 0-3.03.8l-.05.03c-.48.31-.93.65-1.35 1.02a6.3 6.3 0 0 0-1.46 2.27l-.68 2.13a1.55 1.55 0 0 0 1.48 2.02h10.32c.05.02.1.03.16.03h1.04c.05 0 .1 0 .15-.03h10.33a1.55 1.55 0 0 0 1.48-2.02zm-7.56-5.77l-.84.72a7.71 7.71 0 0 0-1.9-.85l1.4-1.2 1.34 1.33zm-4.01-.4a7.7 7.7 0 0 0-1.84 0l-2.25-1.93c0-.45-.04-.9-.09-1.35l-.02-.15c.31.3.64.59 1.02.89a3.6 3.6 0 0 0 4.52 0c.38-.3.7-.6 1.02-.89l-.02.15c-.05.45-.08.9-.09 1.35l-2.25 1.93zm5.18-11.7c.1.24.13.5.11.76 0 1.62-.22 2.34-.35 2.57a1.61 1.61 0 0 1-.22-.24c-.03-1 .06-2.01.3-3a.74.74 0 0 1 .16-.1zm-13.35-6.14c0-2.13 3.32-3.92 7.25-3.92s7.25 1.8 7.25 3.92c-.02.6-.26 1.17-.67 1.6a.6.6 0 0 0 .1-.16.49.49 0 0 0 0-.4.6.6 0 0 0-.1-.16.84.84 0 0 0-.08-.06.38.38 0 0 0-.1-.05.5.5 0 0 0-.67.28.49.49 0 0 0 0 .39.6.6 0 0 0 .11.17c.2.2.53.2.74 0-.23.26-.48.5-.76.7a.5.5 0 0 0-.13-.03H14.62a.5.5 0 0 0-.13.02c-.92-.67-1.43-1.48-1.43-2.3zM25.1 18.5c-.76.55-2.5 1.03-4.78 1.03-2.3 0-4.02-.48-4.78-1.03h9.56zm-10.41 5.92c-.07.09-.14.17-.23.24-.12-.23-.35-.95-.35-2.57-.02-.26.02-.52.1-.76.07.02.13.06.18.1.23.98.33 1.98.3 2.99zm.97 1.25c0-.12 0-.23.02-.34a12.9 12.9 0 0 0-.4-4.64 4.04 4.04 0 0 1-.14-1.03l.02-.18c1.1.68 2.99 1.09 5.16 1.09s4.06-.41 5.16-1.09l.02.18c0 .35-.05.69-.14 1.02a12.9 12.9 0 0 0-.38 4.99c0 1-1.08 2.43-3.05 4.02-.94.76-2.28.76-3.22 0-1.97-1.6-3.05-3.02-3.05-4.02zm1.06 6.43l1.4 1.2c-.67.2-1.3.48-1.9.85l-.83-.72 1.33-1.33zm-7.4 8.08a.51.51 0 0 1-.42-.21.51.51 0 0 1-.08-.46l.68-2.1c.26-.71.68-1.36 1.2-1.89.05-.04.18-.15 1.21-.9a5.36 5.36 0 0 1 2.53-.65l.91.8a7.68 7.68 0 0 0-2.77 5.42H9.31zm6.37 0a4.67 4.67 0 0 1 2.74-3.7l.74 3.7h-3.48zm5.78 0l.74-3.7a4.67 4.67 0 0 1 2.73 3.7h-3.47zm4.52 0a5.7 5.7 0 0 0-4.02-4.9h-.02l-.02-.01a.5.5 0 0 0-.09 0h-.1a.5.5 0 0 0-.1.03.34.34 0 0 0-.16.1.5.5 0 0 0-.06.07.5.5 0 0 0-.05.1.49.49 0 0 0-.04.06v.02l-.01.03-.9 4.5h-.2l-.9-4.5v-.03l-.01-.02a.48.48 0 0 0-.04-.07.52.52 0 0 0-.05-.09.5.5 0 0 0-.06-.07.34.34 0 0 0-.17-.1.5.5 0 0 0-.1-.03h-.17l-.03.01h-.02a5.7 5.7 0 0 0-4.01 4.9H13.6a6.66 6.66 0 0 1 2.86-4.97 6.76 6.76 0 0 1 8.6.76 6.66 6.66 0 0 1 1.96 4.21h-1.04zm5.75-.21a.51.51 0 0 1-.42.21h-3.26a7.68 7.68 0 0 0-2.77-5.42l.91-.78a5.35 5.35 0 0 1 2.53.65c1.03.74 1.16.85 1.2.9.53.52.94 1.15 1.2 1.85l.69 2.13c.05.15.02.33-.08.46z"/>
      <path
        d="M15.37 15.02a.48.48 0 0 0-.15-.1.43.43 0 0 0-.36 0 .53.53 0 0 0-.15.1.49.49 0 0 0-.14.33.54.54 0 0 0 .13.33l.16.1c.18.07.38.03.5-.1a.46.46 0 0 0 .13-.33.49.49 0 0 0-.12-.33zM17.53 15.02a.29.29 0 0 0-.06-.06.25.25 0 0 0-.08-.04.46.46 0 0 0-.5.1.49.49 0 0 0-.15.33c0 .25.2.46.46.46.27 0 .47-.2.47-.46a.47.47 0 0 0-.14-.33zM21.57 15.02a.45.45 0 0 0-.07-.06.25.25 0 0 0-.08-.04.46.46 0 0 0-.5.1.49.49 0 0 0-.14.33c0 .12.04.24.13.33l.15.1a.46.46 0 0 0 .65-.43.49.49 0 0 0-.14-.33zM19.38 14.88a.47.47 0 1 0 0 .94.47.47 0 0 0 0-.94zM23.74 15.02a.47.47 0 0 0-.42-.13.3.3 0 0 0-.09.03.34.34 0 0 0-.08.04.75.75 0 0 0-.07.06.49.49 0 0 0-.13.33c0 .25.2.46.45.46h.01c.06 0 .12 0 .18-.03l.15-.1a.47.47 0 0 0 0-.66zM25.27 14.88a.47.47 0 0 0-.33.8l.15.1.18.03c.26 0 .46-.2.47-.45v-.01c0-.26-.2-.46-.47-.47zM14.43 15.95a.46.46 0 0 0-.58-.06.74.74 0 0 0-.07.06.48.48 0 0 0-.1.15.46.46 0 0 0 .42.64c.26 0 .47-.2.47-.46a.47.47 0 0 0-.14-.33zM16.7 16.1a.54.54 0 0 0-.1-.16.48.48 0 0 0-.65 0 .48.48 0 0 0-.1.16.47.47 0 0 0 .1.51c.18.18.48.18.66 0a.47.47 0 0 0 .1-.51zM18.47 15.95a.45.45 0 0 0-.07-.06.25.25 0 0 0-.08-.04.47.47 0 0 0-.5.1.48.48 0 0 0-.1.15.46.46 0 0 0 .1.5.47.47 0 1 0 .65-.65zM20.74 16.1a.53.53 0 0 0-.1-.15.54.54 0 0 0-.15-.1.47.47 0 0 0-.51.1.48.48 0 0 0-.1.15.47.47 0 0 0 .75.51.46.46 0 0 0 .1-.5zM22.17 15.81a.46.46 0 1 0 0 .93.46.46 0 0 0 0-.93zM24.34 15.81a.47.47 0 0 0-.33.8.47.47 0 0 0 .8-.33c0-.26-.2-.46-.47-.47z"/>
    </g>
  </g>
</svg>
