<svg xmlns="http://www.w3.org/2000/svg" xmlns:xlink="http://www.w3.org/1999/xlink" width="24" height="28">
  <defs>
    <path id="a"
          d="M19.9 18.89a11.27 11.27 0 0 0 2.84-7.5 11.36 11.36 0 0 0-22.72 0c0 2.87 1.07 5.5 2.84 7.5l6.38 6.4a3 3 0 0 0 4.24.01l6.42-6.41z"/>
    <path id="b"
          d="M22.74 11.4a11.36 11.36 0 0 0-22.72 0c0 2.86 1.07 5.49 2.84 7.49l6.38 6.4a3 3 0 0 0 4.25.01l6.43-6.41c1.75-2 2.82-4.63 2.82-7.5z"/>
  </defs>
  <g transform="translate(1 1)" fill="none" fill-rule="evenodd">
    <use fill="#01B6B2" xlink:href="#a"/>
    <use stroke="#3C9694" stroke-width=".5" xlink:href="#b"/>
    <ellipse cx="11.34" cy="11.65" fill="#FFF" rx="4.25" ry="4.27"/>
  </g>
</svg>
