<?xml version="1.0" encoding="UTF-8"?>
<svg width="28px" height="21px" viewBox="0 0 28 21" version="1.1" xmlns="http://www.w3.org/2000/svg" xmlns:xlink="http://www.w3.org/1999/xlink">
    <!-- Generator: Sketch 52.6 (67491) - http://www.bohemiancoding.com/sketch -->
    <title>people</title>
    <desc>Created with Sketch.</desc>
    <g id="Symbols" stroke="none" stroke-width="1" fill="none" fill-rule="evenodd">
        <g id="people" fill="#6A6D74" fill-rule="nonzero">
            <path d="M15.0877006,9.28949914 L15.1068217,9.31805844 C15.4485386,9.86149611 15.3776509,10.6070655 14.8528814,10.8426156 C12.4616688,12.2142827 10.8753005,14.7932692 10.6000107,17.7231425 C10.5975408,18.3804278 11.0113192,18.8647685 11.4994461,18.8647685 L25.2682633,18.8647685 C25.8328603,18.8647685 26.2525172,18.3639521 26.166255,17.7419106 C25.8930458,14.8005098 24.3117522,12.2173804 21.9789195,10.8756421 C21.4127531,10.5540072 21.3686216,9.80170011 21.7508474,9.21575125 C22.2919401,8.42568991 22.6064353,7.38198411 22.6064353,6.35669756 C22.6064353,3.16573572 19.9264152,0.927056063 17.1892513,1.78818425 C15.7587451,2.22696961 14.6678176,3.47469119 14.3047532,5.10809992 C13.9673203,6.62619388 14.2488105,8.11100131 15.0877006,9.28949914 Z M14.17468,9.85186772 C14.0957084,9.91214495 14.0913001,9.95736767 14.0909652,9.95683507 L14.1100863,9.98539437 C14.0945095,9.96351162 14.0790881,9.94154509 14.0638223,9.919496 C14.1042933,9.89468596 14.1449843,9.87016316 14.1858935,9.84593054 L14.17468,9.85186772 Z M13.1333416,4.8477255 C13.587508,2.80445319 14.9813978,1.21022595 16.833236,0.642219808 C20.3778122,-0.472946134 23.8064353,2.39105812 23.8064353,6.35669756 C23.8064353,7.6209154 23.4205927,8.90139934 22.7484841,9.88248607 C22.7215953,9.92372626 22.7123371,9.92091219 22.6654912,9.89037975 C25.2871649,11.4265056 27.055283,14.3383996 27.3579117,17.6033964 C27.5403903,18.9094726 26.5723151,20.0647685 25.2682633,20.0647685 L11.4994461,20.0647685 C10.3023332,20.0647685 9.39519306,19.0029324 9.40260087,17.6652427 C9.70670654,14.4003241 11.4137346,11.5440858 14.0638223,9.919496 C13.0605548,8.47042847 12.7294566,6.66478397 13.1333416,4.8477255 Z" id="Path"></path>
            <path d="M11.2257134,13.3280822 L10.4564982,14.2491185 C10.1619517,14.0031242 9.84183211,13.7891003 9.50329312,13.6121472 C8.97402435,13.3389083 8.9315898,12.681533 9.27833806,12.1985226 C9.63607777,11.7238398 9.84443083,11.0954762 9.84443083,10.4812443 C9.84443083,8.55348941 8.04088265,7.18440934 6.1765885,7.71740741 C5.21112936,7.98652587 4.48331594,8.74299122 4.24245372,9.72774375 C4.0185606,10.643119 4.20400281,11.5320388 4.78224577,12.2719544 C5.0979323,12.7281873 5.02882124,13.3887471 4.5343317,13.5903957 C2.87947221,14.4530541 1.78771605,16.0659928 1.60000558,17.8691569 C1.59873997,18.1752216 1.81005203,18.4 2.07231168,18.4 L10.376709,18.4 L10.376709,19.6 L2.07231168,19.6 C1.12939148,19.6 0.396063725,18.8199393 0.403137694,17.805499 C0.619799047,15.6916377 1.79607438,13.8358195 3.63067213,12.7267974 C2.99041703,11.7684308 2.79208983,10.60672 3.07681449,9.44263816 C3.42038553,8.03796607 4.46956075,6.94748783 5.85054779,6.56255606 C8.47945282,5.81093789 11.0444308,7.75802216 11.0444308,10.4812443 C11.0444308,11.2772451 10.8016464,12.0802265 10.3750893,12.7252294 C10.6743852,12.9034894 10.9586868,13.1050715 11.2257134,13.3280822 Z M3.87445725,12.5859869 C3.92516224,12.5580281 3.97633088,12.5306214 4.02795737,12.503776 C3.97249427,12.5266809 3.92708969,12.5542412 3.89065847,12.5847316 L3.87445725,12.5859869 Z" id="Path-Copy"></path>
        </g>
    </g>
</svg>
