<?xml version="1.0" encoding="UTF-8"?>
<svg width="19px" height="18px" viewBox="0 0 19 18" version="1.1" xmlns="http://www.w3.org/2000/svg" xmlns:xlink="http://www.w3.org/1999/xlink">
    <!-- Generator: Sketch 53.1 (72631) - https://sketchapp.com -->
    <title>Shape</title>
    <desc>Created with Sketch.</desc>
    <g id="Symbols" stroke="none" stroke-width="1" fill="none" fill-rule="evenodd">
        <path d="M14.6747967,17.9261291 C13.9151138,17.9261291 12.9975986,17.7392093 11.9891916,17.3659725 C9.77646924,16.54654 7.37029484,14.9281759 5.21223031,12.8093489 C3.05416578,10.6905219 1.40583191,8.32749312 0.571224711,6.15439907 C-0.188458223,4.17968125 -0.190300623,2.55890522 0.565083377,1.81725548 C0.674399111,1.7099273 0.785557244,1.59536352 0.899786044,1.4777849 C1.58945778,0.76628352 2.38721698,-0.042295593 3.40115111,0.00172101786 C4.11354578,0.030663447 4.80321751,0.464799883 5.51069911,1.32704308 C7.59629591,3.87457981 6.65605778,4.78264852 5.56781351,5.83542938 L5.37497564,6.02234924 C5.19687698,6.19720975 4.85971778,7.00639183 7.99118364,10.080319 C9.01432978,11.0842595 9.88517084,11.8186736 10.5809839,12.2630605 C11.0200892,12.5428373 11.8037234,12.9649144 12.1249151,12.6495625 L12.3183671,12.4578189 C13.3894156,11.3905669 14.3143004,10.4704388 16.9083996,12.5175127 C17.7872244,13.2109251 18.2287863,13.8880573 18.2582647,14.5881023 C18.3006399,15.6022933 17.4777012,16.3692676 16.7517956,17.0457969 C16.6326538,17.1573459 16.5159684,17.265277 16.407881,17.3713992 C16.0308031,17.7410182 15.431409,17.9261291 14.6747967,17.9261291 Z" id="Shape" fill="#FFFFFF" fill-rule="nonzero"></path>
    </g>
</svg>