<?xml version="1.0" encoding="UTF-8"?>
<svg width="29px" height="22px" viewBox="0 0 29 22" version="1.1" xmlns="http://www.w3.org/2000/svg" xmlns:xlink="http://www.w3.org/1999/xlink">
    <!-- Generator: Sketch 52.6 (67491) - http://www.bohemiancoding.com/sketch -->
    <title>hotel-services-icons-06</title>
    <desc>Created with Sketch.</desc>
    <g id="Symbols" stroke="none" stroke-width="1" fill="none" fill-rule="evenodd">
        <g id="hotel-services-icons-06" fill="#6A6D74" fill-rule="nonzero">
            <path d="M26.168,20.7146667 C26.9959443,20.7146667 27.648,20.0322828 27.648,19.1653333 L27.648,6.75466667 C27.648,5.90737085 27.0152958,5.27466667 26.168,5.27466667 L3.63466667,5.27466667 C2.78737085,5.27466667 2.15466667,5.90737085 2.15466667,6.75466667 L2.15466667,19.2346667 C2.15466667,20.0819625 2.78737085,20.7146667 3.63466667,20.7146667 L26.168,20.7146667 Z M26.168,21.9146667 L3.63466667,21.9146667 C2.12462915,21.9146667 0.954666667,20.7447042 0.954666667,19.2346667 L0.954666667,6.75466667 C0.954666667,5.24462915 2.12462915,4.07466667 3.63466667,4.07466667 L26.168,4.07466667 C27.6780375,4.07466667 28.848,5.24462915 28.848,6.75466667 L28.848,19.1653333 C28.848,20.683128 27.6711964,21.9146667 26.168,21.9146667 Z" id="Path"></path>
            <path d="M18.704,2.664 C18.704,2.23270418 18.3486292,1.87733333 17.9173333,1.87733333 L12.5093333,1.87733333 C12.0780375,1.87733333 11.7226667,2.23270418 11.7226667,2.664 L11.7226667,4.07466667 L18.704,4.07466667 L18.704,2.664 Z M19.304,5.27466667 L11.1226667,5.27466667 C10.7912958,5.27466667 10.5226667,5.00603752 10.5226667,4.67466667 L10.5226667,2.664 C10.5226667,1.56996248 11.4152958,0.677333333 12.5093333,0.677333333 L17.9173333,0.677333333 C19.0113708,0.677333333 19.904,1.56996248 19.904,2.664 L19.904,4.67466667 C19.904,5.00603752 19.6353708,5.27466667 19.304,5.27466667 Z" id="Path"></path>
            <path d="M5.25333333,4.46666667 C5.25333333,4.13529582 5.52196248,3.86666667 5.85333333,3.86666667 C6.18470418,3.86666667 6.45333333,4.13529582 6.45333333,4.46666667 L6.45333333,21.1066667 C6.45333333,21.4380375 6.18470418,21.7066667 5.85333333,21.7066667 C5.52196248,21.7066667 5.25333333,21.4380375 5.25333333,21.1066667 L5.25333333,4.46666667 Z" id="Path"></path>
            <path d="M23.28,4.46666667 C23.28,4.13529582 23.5486292,3.86666667 23.88,3.86666667 C24.2113708,3.86666667 24.48,4.13529582 24.48,4.46666667 L24.48,21.1066667 C24.48,21.4380375 24.2113708,21.7066667 23.88,21.7066667 C23.5486292,21.7066667 23.28,21.4380375 23.28,21.1066667 L23.28,4.46666667 Z" id="Path"></path>
        </g>
    </g>
</svg>
