<?xml version="1.0" encoding="UTF-8"?>
<svg width="12px" height="15px" viewBox="0 0 12 15" version="1.1" xmlns="http://www.w3.org/2000/svg" xmlns:xlink="http://www.w3.org/1999/xlink">
    <!-- Generator: Sketch 53.1 (72631) - https://sketchapp.com -->
    <title>flaggy</title>
    <desc>Created with Sketch.</desc>
    <g id="RT---Flow" stroke="none" stroke-width="1" fill="none" fill-rule="evenodd">
        <g id="flaggy" transform="translate(1.000000, 1.000000)" fill="#52A3DB" fill-rule="nonzero">
            <g id="Group-18">
                <g id="Group">
                    <g id="Group-15">
                        <path d="M0.5,0.5 L0.5,12.1572727 L1.48333333,12.1572727 L1.48333333,0.5 L0.5,0.5 Z M0,-0.5 L1.98333333,-0.5 C2.25947571,-0.5 2.48333333,-0.276142375 2.48333333,0 L2.48333333,12.6572727 C2.48333333,12.9334151 2.25947571,13.1572727 1.98333333,13.1572727 L0,13.1572727 C-0.276142375,13.1572727 -0.5,12.9334151 -0.5,12.6572727 L-0.5,0 C-0.5,-0.276142375 -0.276142375,-0.5 0,-0.5 Z" id="Combined-Shape"></path>
                    </g>
                    <path d="M2.5,2.48236353 L2.5,6.4344818 C2.99587334,6.09864693 3.62482565,5.90648966 4.38961039,5.90648966 C5.33036121,5.90648966 5.79366631,6.16849898 6.44763841,6.84441423 L6.45842696,6.85556494 C6.96597641,7.38012273 7.22573886,7.51933247 7.94805195,7.4984005 C8.16607531,7.4984005 8.52343286,7.44920479 8.86808607,7.30686448 C9.15214306,7.18955016 9.36622018,7.02814952 9.5,6.81758839 L9.5,2.70748731 C9.41970758,2.74994708 9.33621752,2.78896528 9.24980853,2.82465182 C8.76129022,3.0264078 8.28547626,3.09191084 7.97026822,3.09141704 C6.93787727,3.13733414 6.44006187,2.86806507 5.75508297,2.14754858 L5.75000629,2.1422085 C5.26799548,1.63519496 5.03315864,1.5 4.41558442,1.5 C3.70439935,1.5 3.1940742,1.70881661 2.83136679,2.05334883 C2.66113102,2.21505412 2.55413671,2.372852 2.5,2.48236353 Z M1.5291352,2.21347303 C1.6151992,1.97252168 1.8066751,1.64745762 2.14265918,1.32830964 C2.68904268,0.809305311 3.4449513,0.5 4.41558442,0.5 C5.35877871,0.5 5.82219867,0.766789656 6.47475732,1.45319765 L6.47983712,1.45854102 C6.98439807,1.98927924 7.23209656,2.12325971 7.94805195,2.09191084 C8.16607531,2.09191084 8.52343286,2.04271513 8.86808607,1.90037482 C9.1921708,1.76652921 9.42516374,1.57529707 9.55174231,1.31914266 C9.78604505,0.844989105 10.5,1.01176395 10.5,1.54064897 L10.5,6.94713863 C10.5,7.02396879 10.4822944,7.09976551 10.4482577,7.16864493 C10.2025076,7.66596419 9.78139405,8.01159892 9.24980853,8.23114148 C8.76129022,8.43289746 8.28547626,8.4984005 7.9626835,8.49818638 C6.9280698,8.52847536 6.42450182,8.25860739 5.73976517,7.55092472 L5.72896219,7.5397591 C5.24529623,7.03986439 5.00945275,6.90648966 4.38961039,6.90648966 C3.67965168,6.90648966 3.17567051,7.11430904 2.82162884,7.4567243 C2.6176112,7.6540422 2.50845716,7.84545946 2.473619,7.94841368 C2.2922306,8.4844552 1.5,8.35404765 1.5,7.78814813 L1.5,2.38165847 L1.5291352,2.21347303 Z" id="Shape"></path>
                </g>
            </g>
        </g>
    </g>
</svg>