<?xml version="1.0" encoding="UTF-8"?>
<svg width="11px" height="13px" viewBox="0 0 11 13" version="1.1" xmlns="http://www.w3.org/2000/svg" xmlns:xlink="http://www.w3.org/1999/xlink">
    <!-- Generator: Sketch 53.1 (72631) - https://sketchapp.com -->
    <title>tiny location</title>
    <desc>Created with Sketch.</desc>
    <g id="RT---Flow" stroke="none" stroke-width="1" fill="none" fill-rule="evenodd">
        <g id="tiny-location" transform="translate(1.000000, 1.000000)" fill="#00AFAA" fill-rule="nonzero">
            <g id="Group-23">
                <path d="M8.28289474,4.34570312 C8.28289474,2.23044615 6.53423336,0.5 4.39144737,0.5 C2.24866138,0.5 0.5,2.23044615 0.5,4.34570312 C0.5,6.3186705 3.40840927,10.4863281 4.39144737,10.4863281 C4.66287032,10.4863281 5.67645183,9.52698752 6.56832707,8.27337971 C7.60611593,6.81467767 8.28289474,5.31129993 8.28289474,4.34570312 Z M9.28289474,4.34570312 C9.28289474,6.75099892 5.91396003,11.4863281 4.39144737,11.4863281 C2.76333666,11.4863281 -0.5,6.81007088 -0.5,4.34570312 C-0.5,1.67580385 1.69870704,-0.5 4.39144737,-0.5 C7.08418769,-0.5 9.28289474,1.67580385 9.28289474,4.34570312 Z" id="Path"></path>
                <path d="M4.5,6.5 C3.3954305,6.5 2.5,5.6045695 2.5,4.5 C2.5,3.3954305 3.3954305,2.5 4.5,2.5 C5.6045695,2.5 6.5,3.3954305 6.5,4.5 C6.5,5.6045695 5.6045695,6.5 4.5,6.5 Z M4.5,5.5 C5.05228475,5.5 5.5,5.05228475 5.5,4.5 C5.5,3.94771525 5.05228475,3.5 4.5,3.5 C3.94771525,3.5 3.5,3.94771525 3.5,4.5 C3.5,5.05228475 3.94771525,5.5 4.5,5.5 Z" id="Oval"></path>
            </g>
        </g>
    </g>
</svg>